<?xml version="1.0" standalone="no"?>
<!DOCTYPE svg PUBLIC "-//W3C//DTD SVG 1.1//EN" "http://www.w3.org/Graphics/SVG/1.1/DTD/svg11.dtd" >
<svg xmlns="http://www.w3.org/2000/svg">
<metadata>
Generated by SVGconv.
Copyright   : Copyright  2004 ParaType Inc., ParaType Ltd. All rights reserved.
Designer    : Tagir Safayev
Foundry     : ParaType, Inc.
Foundry URL : http://www.paratype.com
</metadata>
<defs>
<font id="DINCondensedWeb" horiz-adv-x="405" >
<font-face units-per-em="1000" ascent="934" descent="266" />
<missing-glyph horiz-adv-x="500" />
<glyph unicode="&#32;" horiz-adv-x="233" />
<glyph unicode="&#33;" horiz-adv-x="210" d="M45 700l17 -525h80l23 525zM47 110v-110h110l0 110z" />
<glyph unicode="&#34;" horiz-adv-x="343" d="M45 686l27 -246h40l27 246zM204 686l27 -246h40l27 246z" />
<glyph unicode="&#35;" horiz-adv-x="443" d="M149 700l-29 -207h-64v-64h55l-21 -155h-64l-1 -65h55l-29 -209h75l29 209h92l-29 -209h75l29 209h64l1 65h-55l21 155h64l1 64h-56l29 207h-75l-29 -207h-92l29 207zM257 274h-92l21 155l92 0z" />
<glyph unicode="&#36;" horiz-adv-x="455" d="M204 -80h48v81q52 4 83.5 24.5q31.5 20.5 48 50q16.5 29.5 21.5 62.5q5 33 5 63v14q0 33 -5 62.5q-5 29.5 -26 58.5q-21 28 -46 40q-25 12 -49 20l-32 11v192q11 -2 19.5 -8q8.5 -6 13.5 -12q13 -15 15.5 -34q2.5 -19 2.5 -30v-19h100v23q0 31 -9 67q-9 36 -38 67q-15 16 -40.5 30q-25.5 14 -63.5 16l0 81h-48v-81q-32 -3 -56 -15q-24 -12 -41 -27q-18 -17 -29 -35.5q-11 -18.5 -16.5 -35.5q-5.5 -17 -7 -32.5q-1.5 -15.5 -1.5 -26.5v-10q0 -26 2 -51q2 -25 14 -51q17 -35 42 -51.5q25 -16.5 54 -26.5l39 -13v-224q-12 2 -23 7.5q-11 5.5 -18 13.5q-10 11 -14 29q-4 18 -4 33v19h-100v-23q0 -39 9.5 -68.5q9.5 -29.5 24.5 -49.5q20 -26 54 -42q34 -16 71 -18zM252 307q10 -4 22 -11q12 -7 19 -16q12 -15 14.5 -37q2.5 -22 2.5 -35v-16q0 -16 -2.5 -35.5q-2.5 -19.5 -14.5 -33.5q-9 -11 -21 -16q-12 -5 -20 -7zM204 424q-8 4 -17.5 10q-9.5 6 -16.5 15q-11 14 -14 29.5q-3 15.5 -3 33.5q0 16 2 31q2 15 12 29q8 12 17 18q9 6 20 9z" />
<glyph unicode="&#37;" horiz-adv-x="626" d="M417 700l-288 -700h76l288 700zM581 259q0 23 -6 43q-6 20 -24 37q-17 16 -37 21q-20 5 -39 5q-19 0 -39 -5q-20 -5 -37 -21q-18 -17 -24 -37q-6 -20 -6 -43v-153q0 -23 6 -43q6 -20 24 -37q17 -16 37 -21q20 -5 39 -5q19 0 39 5q20 5 37 21q18 17 24 37q6 20 6 43zM447 260q0 4 0.5 11q0.5 7 5.5 12q9 9 22 9q13 0 22 -9q5 -5 5.5 -12q0.5 -7 0.5 -11v-155q0 -4 -0.5 -11q-0.5 -7 -5.5 -12q-9 -9 -22 -9q-13 0 -22 9q-5 5 -5.5 12q-0.5 7 -0.5 11zM257 594q0 23 -6 43q-6 20 -24 37q-17 16 -37 21q-20 5 -39 5q-19 0 -39 -5q-20 -5 -37 -21q-18 -17 -24 -37q-6 -20 -6 -43v-153q0 -23 6 -43q6 -20 24 -37q17 -16 37 -21q20 -5 39 -5q19 0 39 5q20 5 37 21q18 17 24 37q6 20 6 43zM123 595q0 4 0.5 11q0.5 7 5.5 12q9 9 22 9q13 0 22 -9q5 -5 5.5 -12q0.5 -7 0.5 -11v-155q0 -4 -0.5 -11q-0.5 -7 -5.5 -12q-9 -9 -22 -9q-13 0 -22 9q-5 5 -5.5 12q-0.5 7 -0.5 11z" />
<glyph unicode="&#38;" horiz-adv-x="490" d="M402 283q-3 -16 -6 -25.5q-3 -9.5 -7 -21.5q-4 -11 -7.5 -20.5q-3.5 -9.5 -13.5 -22.5l-113 179q19 16 42 38q23 22 39 44q19 26 30.5 55q11.5 29 11.5 64q0 40 -15 66q-15 26 -39 43q-18 12 -43 20q-25 8 -60 8q-28 0 -58.5 -7.5q-30.5 -7.5 -56.5 -33.5q-23 -22 -32 -48.5q-9 -26.5 -9 -58.5q0 -43 9.5 -71.5q9.5 -28.5 23.5 -52.5q9 -17 20 -33.5q11 -16.5 19 -28.5q-22 -17 -45 -40q-23 -23 -37 -43q-19 -28 -27 -62q-8 -34 -8 -68q0 -36 10.5 -64q10.5 -28 31.5 -52q26 -30 58 -43.5q32 -13.5 79 -13.5q28 0 56.5 6q28.5 6 50.5 18q14 8 26.5 19q12.5 11 21.5 21l34 -54h107l-75 118q14 15 23.5 30q9.5 15 17.5 36q8 19 14 38.5q6 19.5 10 37.5zM302 122q-6 -9 -12.5 -14.5q-6.5 -5.5 -17.5 -11.5q-13 -8 -26.5 -12q-13.5 -4 -33.5 -4q-20 0 -40 6.5q-20 6.5 -35 28.5q-11 15 -14 30q-3 15 -3 29q0 48 23 81q8 11 20.5 24.5q12.5 13.5 25.5 23.5zM198 460q-10 13 -23.5 40.5q-13.5 27.5 -13.5 62.5q0 11 2.5 25.5q2.5 14.5 15.5 26.5q5 5 15.5 10.5q10.5 5.5 27.5 5.5q12 0 23 -3.5q11 -3.5 20 -12.5q6 -6 11.5 -17.5q5.5 -11.5 5.5 -29.5q0 -14 -3.5 -27q-3.5 -13 -9.5 -26q-6 -14 -18.5 -33.5q-12.5 -19.5 -37.5 -41.5z" />
<glyph unicode="&#39;" horiz-adv-x="214" d="M60 686l27 -246h40l27 246z" />
<glyph unicode="&#40;" horiz-adv-x="257" d="M237 -204q-18 50 -34.5 106.5q-16.5 56.5 -26.5 105.5q-11 50 -18.5 115q-7.5 65 -7.5 125q0 60 7.5 125q7.5 65 18.5 115q10 49 26.5 105.5q16.5 56.5 34.5 106.5l-70 0q-31 -62 -53 -118q-22 -56 -36.5 -110.5q-14.5 -54.5 -21 -109.5q-6.5 -55 -6.5 -114q0 -59 6.5 -114q6.5 -55 21 -109.5q14.5 -54.5 36.5 -111q22 -56.5 53 -117.5z" />
<glyph unicode="&#41;" horiz-adv-x="257" d="M20 700q18 -50 34.5 -106.5q16.5 -56.5 26.5 -105.5q5 -25 10 -54.5q5 -29.5 8.5 -60.5q3.5 -31 5.5 -63q2 -32 2 -62q0 -30 -2 -62q-2 -32 -5.5 -63q-3.5 -31 -8.5 -60.5q-5 -29.5 -10 -54.5q-10 -49 -26.5 -105.5q-16.5 -56.5 -34.5 -106.5l70 0q31 61 53 117.5q22 56.5 36.5 111q14.5 54.5 21 109.5q6.5 55 6.5 114q0 59 -6.5 114q-6.5 55 -21 109.5q-14.5 54.5 -36.5 110.5q-22 56 -53 118z" />
<glyph unicode="&#42;" horiz-adv-x="393" d="M76 437l87 55l-3 -107h67l-4 107l92 -57l33 63l-95 46l95 49l-33 59l-90 -55l2 103h-66l2 -103l-88 50l-28 -53l87 -50l-89 -50z" />
<glyph unicode="&#43;" horiz-adv-x="494" d="M50 331v-80h157v-157h80v157h157v80h-157v157h-80l0 -157z" />
<glyph unicode="&#44;" horiz-adv-x="220" d="M50 110v-210l110 100l0 110z" />
<glyph unicode="&#45;" horiz-adv-x="314" d="M45 351v-90h224l0 90z" />
<glyph unicode="&#46;" horiz-adv-x="220" d="M50 110v-110h110l0 110z" />
<glyph unicode="&#47;" horiz-adv-x="338" d="M273 700l-288 -700h80l288 700z" />
<glyph unicode="&#48;" horiz-adv-x="418" d="M55 151q0 -35 9 -68.5q9 -33.5 43 -60.5q17 -14 42 -23q25 -9 60 -9q29 0 55.5 8q26.5 8 49.5 27q17 15 27 30.5q10 15.5 15 32q5 16.5 6 32.5q1 16 1 31v398q0 29 -5.5 57.5q-5.5 28.5 -32.5 57.5q-25 26 -54.5 36q-29.5 10 -61.5 10q-29 0 -57.5 -8.5q-28.5 -8.5 -48.5 -25.5q-17 -14 -26.5 -31q-9.5 -17 -14.5 -34q-5 -17 -6 -33q-1 -16 -1 -29zM263 165q0 -14 -2 -28.5q-2 -14.5 -10 -27.5q-14 -21 -42 -21q-9 0 -20.5 3.5q-11.5 3.5 -21.5 17.5q-8 12 -10 27q-2 15 -2 29v370q0 14 2 29.5q2 15.5 10 26.5q15 21 42 21q14 0 25 -6q11 -6 17 -15q8 -11 10 -26.5q2 -15.5 2 -29.5z" />
<glyph unicode="&#49;" horiz-adv-x="418" d="M183 0h100v700h-96l-112 -82v-103l108 78z" />
<glyph unicode="&#50;" horiz-adv-x="418" d="M55 504h100v27q0 17 1 31q1 14 8 26q5 9 15.5 16.5q10.5 7.5 28.5 7.5q16 0 25 -5.5q9 -5.5 14 -10.5q15 -18 15 -51v-15q0 -13 -2.5 -31q-2.5 -18 -5.5 -29q-3 -11 -10 -26q-7 -15 -12 -26l-177 -326v-92h307v95h-192l158 297q7 12 12.5 22.5q5.5 10.5 12.5 33.5q6 19 7.5 32.5q1.5 13.5 1.5 31.5v37q0 35 -9.5 64q-9.5 29 -26.5 49q-23 29 -52.5 38.5q-29.5 9.5 -63.5 9.5q-25 0 -55.5 -7q-30.5 -7 -56.5 -34q-17 -18 -30 -47.5q-13 -29.5 -13 -76.5z" />
<glyph unicode="&#51;" horiz-adv-x="418" d="M55 503h100v40q0 12 2.5 25.5q2.5 13.5 12.5 25.5q15 18 37 18q14 0 24.5 -4.5q10.5 -4.5 15.5 -10.5q7 -7 11.5 -17.5q4.5 -10.5 4.5 -24.5v-89q0 -8 -2.5 -21.5q-2.5 -13.5 -13.5 -24.5q-10 -10 -21 -12.5q-11 -2.5 -22 -2.5h-23v-89h24q13 0 23.5 -1.5q10.5 -1.5 20.5 -12.5q10 -11 12 -24.5q2 -13.5 2 -25.5v-104q0 -36 -17 -48q-17 -12 -36 -12q-16 0 -26.5 5.5q-10.5 5.5 -15.5 12.5q-7 9 -10 23q-3 14 -3 25v46h-100v-71q0 -36 12 -61q12 -25 28 -40q26 -25 54 -31.5q28 -6.5 55 -6.5q32 0 62 7.5q30 7.5 56 33.5q29 29 35 61.5q6 32.5 6 74.5v67q0 16 -1.5 34.5q-1.5 18.5 -7.5 35.5q-6 17 -18 32q-12 15 -34 24q20 8 32 20.5q12 12.5 18.5 27q6.5 14.5 8.5 29q2 14.5 2 26.5v101q0 42 -16 70.5q-16 28.5 -35 43.5q-21 17 -50 24.5q-29 7.5 -56 7.5q-62 0 -102 -34q-33 -28 -41 -59q-8 -31 -8 -53z" />
<glyph unicode="&#52;" horiz-adv-x="418" d="M185 700l-149 -508v-84h198v-108h100v108h48v90h-48v199h-100v-198h-97l146 501z" />
<glyph unicode="&#53;" horiz-adv-x="418" d="M67 700v-380h92q7 16 16 25q9 10 18.5 13q9.5 3 20.5 3q23 0 35 -15q8 -10 10 -21.5q2 -11.5 2 -22.5v-152q0 -8 -2 -21q-2 -13 -11 -24q-6 -8 -15.5 -12.5q-9.5 -4.5 -24.5 -4.5q-14 0 -25 5.5q-11 5.5 -16 13.5q-7 9 -8.5 20.5q-1.5 11.5 -1.5 22.5v19h-100v-31q0 -25 8.5 -54.5q8.5 -29.5 37.5 -55.5q20 -17 46.5 -27.5q26.5 -10.5 61.5 -10.5q43 0 70 13.5q27 13.5 42 30.5q25 26 31.5 55.5q6.5 29.5 6.5 54.5v189q0 26 -8 49q-8 23 -21 37q-15 17 -38 26.5q-23 9.5 -48 9.5q-25 0 -47 -9q-18 -7 -32 -20l0 184h194l0 90z" />
<glyph unicode="&#54;" horiz-adv-x="418" d="M218 700l-125 -310q-6 -16 -12.5 -31q-6.5 -15 -12 -31.5q-5.5 -16.5 -8.5 -36q-3 -19.5 -3 -43.5v-102q0 -30 8 -59.5q8 -29.5 37 -57.5q23 -21 49.5 -30q26.5 -9 55.5 -9q32 0 63 10q31 10 51 30q16 16 28 43.5q12 27.5 12 70.5v137q0 38 -11 60.5q-11 22.5 -19 31.5q-17 20 -37.5 28q-20.5 8 -39.5 8q-12 0 -27 -2q-15 -2 -26 -10l124 303zM261 156q0 -14 -2 -27q-2 -13 -11 -24q-6 -8 -17 -12.5q-11 -4.5 -25 -4.5q-17 0 -25.5 6.5q-8.5 6.5 -12.5 11.5q-8 10 -9.5 20.5q-1.5 10.5 -1.5 20.5v119q0 16 5.5 27q5.5 11 12.5 18q9 9 19 12.5q10 3.5 20 3.5q22 0 36 -17q8 -9 9.5 -19q1.5 -10 1.5 -21z" />
<glyph unicode="&#55;" horiz-adv-x="418" d="M59 700v-175h90v82h108l-159 -607h101l160 608l0 92z" />
<glyph unicode="&#56;" horiz-adv-x="418" d="M363 549q0 7 -2.5 33q-2.5 26 -17 54.5q-14.5 28.5 -46 51q-31.5 22.5 -88.5 22.5q-57 0 -88.5 -22.5q-31.5 -22.5 -46 -51q-14.5 -28.5 -17 -54.5q-2.5 -26 -2.5 -33v-79q0 -29 9 -53.5q9 -24.5 38 -53.5q-20 -15 -30 -30q-10 -15 -13.5 -30.5q-3.5 -15.5 -3.5 -31.5q0 -16 0 -32v-88q0 -7 2.5 -33q2.5 -26 17 -54.5q14.5 -28.5 46 -51q31.5 -22.5 88.5 -22.5q57 0 88.5 22.5q31.5 22.5 46 51q14.5 28.5 17 54.5q2.5 26 2.5 33v88q0 16 0 32q0 16 -3.5 31.5q-3.5 15.5 -13.5 30.5q-10 15 -30 30q29 29 38 53.5q9 24.5 9 53.5zM263 482q0 -10 -1.5 -23q-1.5 -13 -6.5 -25q-5 -12 -16 -20.5q-11 -8.5 -30 -8.5q-19 0 -30 8.5q-11 8.5 -16 20.5q-5 12 -6.5 25q-1.5 13 -1.5 23v53q0 10 1.5 23q1.5 13 6.5 25q5 12 16 20.5q11 8.5 30 8.5q19 0 30 -8.5q11 -8.5 16 -20.5q5 -12 6.5 -25q1.5 -13 1.5 -23zM263 165q0 -10 -1.5 -23q-1.5 -13 -6.5 -25q-5 -12 -16 -20.5q-11 -8.5 -30 -8.5q-19 0 -30 8.5q-11 8.5 -16 20.5q-5 12 -6.5 25q-1.5 13 -1.5 23v90q0 10 1.5 23q1.5 13 6.5 25q5 12 16 20.5q11 8.5 30 8.5q19 0 30 -8.5q11 -8.5 16 -20.5q5 -12 6.5 -25q1.5 -13 1.5 -23z" />
<glyph unicode="&#57;" horiz-adv-x="418" d="M200 0l125 310q6 16 12.5 31q6.5 15 12 31.5q5.5 16.5 8.5 36q3 19.5 3 43.5v102q0 30 -8 59.5q-8 29.5 -37 57.5q-23 21 -49.5 30q-26.5 9 -55.5 9q-32 0 -63 -10q-31 -10 -51 -30q-16 -16 -28 -43.5q-12 -27.5 -12 -70.5v-137q0 -38 11 -60.5q11 -22.5 19 -31.5q17 -20 37.5 -28q20.5 -8 39.5 -8q12 0 27 2q15 2 26 10l-124 -303zM157 544q0 14 2 27q2 13 11 24q14 17 42 17q17 0 25.5 -6.5q8.5 -6.5 12.5 -11.5q8 -10 9.5 -20.5q1.5 -10.5 1.5 -20.5v-119q0 -16 -5.5 -27q-5.5 -11 -12.5 -18q-9 -9 -19 -12.5q-10 -3.5 -20 -3.5q-12 0 -21 4.5q-9 4.5 -15 12.5q-8 9 -9.5 19q-1.5 10 -1.5 21z" />
<glyph unicode="&#58;" horiz-adv-x="215" d="M50 491v-105h105v105zM50 105v-105h105l0 105z" />
<glyph unicode="&#59;" horiz-adv-x="215" d="M50 105v-205l105 100v105zM50 491v-105h105l0 105z" />
<glyph unicode="&#60;" horiz-adv-x="469" d="M25 273l394 -183v73l-290 135l290 135v73l-394 -183z" />
<glyph unicode="&#61;" horiz-adv-x="494" d="M50 221v-80h394v80zM50 361v-80h394l0 80z" />
<glyph unicode="&#62;" horiz-adv-x="469" d="M444 273v50l-394 183v-73l290 -135l-290 -135l0 -73z" />
<glyph unicode="&#63;" horiz-adv-x="354" d="M121 173h100v57q0 13 1.5 31q1.5 18 13.5 37l70 111q14 23 18.5 49q4.5 26 4.5 54v55q0 42 -16.5 68q-16.5 26 -28.5 37q-41 38 -115 38q-29 0 -52.5 -8q-23.5 -8 -40.5 -21q-21 -16 -38.5 -46q-17.5 -30 -17.5 -69v-60h100v48q0 11 3.5 22.5q3.5 11.5 8.5 18.5q5 7 15 12q10 5 25 5q11 0 22 -2.5q11 -2.5 20 -11.5q10 -10 12.5 -20.5q2.5 -10.5 2.5 -21.5v-42q0 -10 -2.5 -28.5q-2.5 -18.5 -14.5 -37.5l-57 -90q-13 -20 -20 -32q-7 -12 -10 -22q-3 -10 -3.5 -21q-0.5 -11 -0.5 -27zM116 110v-110h110l0 110z" />
<glyph unicode="&#64;" horiz-adv-x="667" d="M472 489h-83v-39q-8 9 -17.5 17.5q-9.5 8.5 -20.5 14.5q-13 7 -28 10.5q-15 3.5 -28 3.5q-20 0 -36.5 -6.5q-16.5 -6.5 -27.5 -16.5q-12 -12 -19.5 -27.5q-7.5 -15.5 -11 -32.5q-3.5 -17 -4.5 -34q-1 -17 -1 -32v-138q0 -26 4.5 -55.5q4.5 -29.5 23.5 -52.5q18 -22 41 -28.5q23 -6.5 44 -6.5q25 0 39 6.5q14 6.5 30 19.5q14 11 22.5 23q8.5 12 10.5 34q1 -23 10.5 -39.5q9.5 -16.5 21.5 -25.5q13 -10 29.5 -14q16.5 -4 31.5 -4q29 0 52.5 11.5q23.5 11.5 34.5 31.5q7 12 12 34.5q5 22.5 5 64.5v219q0 67 -10.5 116.5q-10.5 49.5 -45.5 85.5q-40 42 -98 56.5q-58 14.5 -124 14.5q-45 0 -80.5 -7q-35.5 -7 -62 -18.5q-26.5 -11.5 -45 -25.5q-18.5 -14 -30.5 -29q-33 -42 -42 -104q-9 -62 -9 -125v-240q0 -25 1 -52q1 -27 5.5 -54q4.5 -27 14.5 -52q10 -25 28 -46q21 -24 48.5 -38q27.5 -14 56.5 -21q29 -7 55.5 -9q26.5 -2 44.5 -2q16 0 39 1.5q23 1.5 40 4.5q13 2 39 8.5q26 6.5 59 20.5l-19 64q-15 -5 -35.5 -11q-20.5 -6 -36.5 -9q-17 -3 -37.5 -4.5q-20.5 -1.5 -32.5 -1.5q-11 0 -29.5 1q-18.5 1 -40 6q-21.5 5 -42.5 14q-21 9 -36 26q-15 17 -27 50.5q-12 33.5 -12 101.5v242q0 68 6.5 99.5q6.5 31.5 9.5 41.5q4 12 14 28.5q10 16.5 29.5 31.5q19.5 15 51 25q31.5 10 79.5 10q51 0 89.5 -14.5q38.5 -14.5 59.5 -35.5q15 -15 23 -34q8 -19 12.5 -39.5q4.5 -20.5 5.5 -40.5q1 -20 1 -36v-220q0 -37 -6 -52.5q-6 -15.5 -22 -15.5q-9 0 -13.5 4q-4.5 4 -7 10q-2.5 6 -3 12q-0.5 6 -0.5 10zM278 344q0 10 2.5 29.5q2.5 19.5 15.5 33.5q15 16 37 16q14 0 24 -6q10 -6 16 -14q8 -12 9.5 -28q1.5 -16 1.5 -28v-105q0 -23 -1.5 -44q-1.5 -21 -9.5 -35q-5 -9 -16.5 -16.5q-11.5 -7.5 -28.5 -7.5q-11 0 -20.5 4q-9.5 4 -17.5 15q-8 11 -10 24q-2 13 -2 26z" />
<glyph unicode="&#65;" horiz-adv-x="429" d="M404 0l-153 700h-88l-153 -700h100l33 150h128l33 -150zM259 239h-106l52 266z" />
<glyph unicode="&#66;" horiz-adv-x="451" d="M60 700v-700h152q45 0 73.5 10q28.5 10 45.5 23q22 17 34.5 38q12.5 21 18 41q5.5 20 6.5 38q1 18 1 29v53q0 25 -2.5 43.5q-2.5 18.5 -17.5 44.5q-7 11 -17.5 23q-10.5 12 -30.5 21q8 5 18 12.5q10 7.5 20 19.5q20 23 25 48.5q5 25.5 5 60.5q0 15 -1 36q-1 21 -7 43q-6 22 -19 43.5q-13 21.5 -37 38.5q-17 12 -35 18.5q-18 6.5 -36 10q-18 3.5 -34 4.5q-16 1 -27 1zM160 610h47q25 0 40.5 -7q15.5 -7 24.5 -16q8 -9 13.5 -21.5q5.5 -12.5 5.5 -26.5v-43q0 -17 -5 -33q-5 -16 -14 -27q-8 -9 -23 -17.5q-15 -8.5 -41 -8.5h-48zM160 320h51q31 0 53 -18q17 -14 22 -32.5q5 -18.5 5 -44.5v-33q0 -5 -0.5 -13q-0.5 -8 -2 -18q-1.5 -10 -5.5 -20.5q-4 -10.5 -10 -19.5q-16 -22 -36.5 -26.5q-20.5 -4.5 -31.5 -4.5l-45 0z" />
<glyph unicode="&#67;" horiz-adv-x="434" d="M289 501h97v48q0 37 -13 67q-13 30 -32 49q-23 22 -56 33.5q-33 11.5 -65 11.5q-28 0 -59.5 -10q-31.5 -10 -54.5 -31q-34 -29 -42.5 -66q-8.5 -37 -8.5 -71v-363q0 -27 4 -60.5q4 -33.5 31 -65.5q17 -20 46.5 -36.5q29.5 -16.5 79.5 -16.5q52 0 83.5 15q31.5 15 47.5 32q14 14 28 45q14 31 14 83v29h-100v-25q0 -26 -5 -39q-5 -13 -9 -18q-9 -12 -24 -18q-15 -6 -32 -6q-21 0 -33.5 8.5q-12.5 8.5 -17.5 16.5q-10 14 -11.5 29.5q-1.5 15.5 -1.5 32.5v345q0 18 2.5 36q2.5 18 14.5 33q8 9 20 16q12 7 32 7q24 0 36 -10q12 -10 16 -15q7 -10 10 -22.5q3 -12.5 3 -23.5z" />
<glyph unicode="&#68;" horiz-adv-x="450" d="M60 700v-700h149q15 0 32.5 2q17.5 2 36 7.5q18.5 5.5 37 16.5q18.5 11 35.5 29q30 33 37.5 70q7.5 37 7.5 73v309q0 11 -1.5 29.5q-1.5 18.5 -6.5 39.5q-5 21 -16 42.5q-11 21.5 -30 39.5q-17 15 -35.5 23.5q-18.5 8.5 -38 12.5q-19.5 4 -38 5q-18.5 1 -34.5 1zM160 602h51q19 0 35 -3q16 -3 30 -20q12 -15 15.5 -32.5q3.5 -17.5 3.5 -32.5v-310q0 -17 -3.5 -41q-3.5 -24 -19.5 -41q-15 -16 -33 -20q-18 -4 -34 -4l-45 0z" />
<glyph unicode="&#69;" horiz-adv-x="395" d="M60 0h300v95h-200v214h174v90h-174v206h197v95l-297 0z" />
<glyph unicode="&#70;" horiz-adv-x="389" d="M60 0h100v300h179v95h-179v210h204v95l-304 0z" />
<glyph unicode="&#71;" horiz-adv-x="461" d="M405 500v28q0 49 -15.5 83q-15.5 34 -35.5 54q-21 21 -53 33q-32 12 -71 12q-14 0 -32.5 -2.5q-18.5 -2.5 -37.5 -9.5q-19 -7 -37.5 -20q-18.5 -13 -33.5 -34q-23 -32 -28 -64q-5 -32 -5 -64v-354q0 -24 6 -58q6 -34 30 -64q25 -31 54.5 -40.5q29.5 -9.5 56.5 -9.5q13 0 34.5 2.5q21.5 2.5 43.5 14.5q11 6 24 17q13 11 24 30l26 -54h50v382h-185v-90h85v-94q0 -19 -2 -42q-2 -23 -16 -40q-10 -13 -26 -20.5q-16 -7.5 -32 -7.5q-18 0 -32.5 7q-14.5 7 -23.5 18q-12 16 -14.5 36q-2.5 20 -2.5 36v328q0 19 2.5 38q2.5 19 16.5 36q9 11 22.5 18q13.5 7 33.5 7q20 0 33 -6q13 -6 21 -14q14 -14 17 -29q3 -15 3 -28l0 -35z" />
<glyph unicode="&#72;" horiz-adv-x="455" d="M60 700v-700h100v309h135v-309h100v700h-100v-301h-135l0 301z" />
<glyph unicode="&#73;" horiz-adv-x="220" d="M60 700v-700h100l0 700z" />
<glyph unicode="&#74;" horiz-adv-x="361" d="M201 700v-515q0 -17 -3.5 -36q-3.5 -19 -15.5 -35q-11 -15 -26.5 -20.5q-15.5 -5.5 -32.5 -5.5q-11 0 -27 4.5q-16 4.5 -29 22.5l-77 -65q18 -21 37 -33q19 -12 37 -18q18 -6 33 -7.5q15 -1.5 25 -1.5q31 0 64.5 7.5q33.5 7.5 63.5 37.5q18 18 28.5 39q10.5 21 15.5 42q5 21 6 42q1 21 1 40l0 502z" />
<glyph unicode="&#75;" horiz-adv-x="475" d="M60 700v-700h100v205l62 108l119 -313h109l-168 413l142 287h-105l-159 -337l0 337z" />
<glyph unicode="&#76;" horiz-adv-x="407" d="M60 700v-700h312v95h-212l0 605z" />
<glyph unicode="&#77;" horiz-adv-x="593" d="M60 0h100v438h5l105 -316h53l105 316h5v-438h100v700h-100l-131 -386h-4l-138 386l-100 0z" />
<glyph unicode="&#78;" horiz-adv-x="487" d="M60 700v-700h100v440l167 -440h100v700h-100v-440l-167 440z" />
<glyph unicode="&#79;" horiz-adv-x="462" d="M56 184q0 -40 8 -77.5q8 -37.5 44 -71.5q23 -21 53.5 -33q30.5 -12 69.5 -12q39 0 69.5 12q30.5 12 53.5 33q36 34 44 71.5q8 37.5 8 77.5v332q0 40 -8 77.5q-8 37.5 -44 71.5q-23 21 -53.5 33q-30.5 12 -69.5 12q-39 0 -69.5 -12q-30.5 -12 -53.5 -33q-36 -34 -44 -71.5q-8 -37.5 -8 -77.5zM306 169q0 -16 -3.5 -31.5q-3.5 -15.5 -17.5 -29.5q-8 -8 -21.5 -14q-13.5 -6 -32.5 -6q-19 0 -32.5 6q-13.5 6 -21.5 14q-14 14 -17.5 29.5q-3.5 15.5 -3.5 31.5v362q0 16 3.5 31.5q3.5 15.5 17.5 29.5q8 8 21.5 14q13.5 6 32.5 6q19 0 32.5 -6q13.5 -6 21.5 -14q14 -14 17.5 -29.5q3.5 -15.5 3.5 -31.5z" />
<glyph unicode="&#80;" horiz-adv-x="430" d="M60 0h100v277h59q16 0 34 2q18 2 36 8q18 6 35.5 16.5q17.5 10.5 32.5 28.5q15 17 23.5 35.5q8.5 18.5 13 37.5q4.5 19 5.5 36.5q1 17.5 1 32.5v20q0 39 -8.5 82q-8.5 43 -42.5 78q-17 16 -34.5 25.5q-17.5 9.5 -35.5 14q-18 4.5 -36 5.5q-18 1 -34 1h-149zM160 610h35q20 0 40.5 -2q20.5 -2 37.5 -16q21 -17 24 -40q3 -23 3 -41v-46q0 -19 -1.5 -37q-1.5 -18 -17.5 -35q-16 -17 -34.5 -21.5q-18.5 -4.5 -32.5 -4.5l-54 0z" />
<glyph unicode="&#81;" horiz-adv-x="482" d="M60 184q0 -40 8 -77.5q8 -37.5 44 -71.5q27 -25 58.5 -34.5q31.5 -9.5 64.5 -10.5q41 -1 65.5 9.5q24.5 10.5 43.5 27.5l62 -49l51 62l-63 50q11 23 13.5 43.5q2.5 20.5 2.5 50.5v332q0 40 -8 77.5q-8 37.5 -44 71.5q-23 21 -53.5 33q-30.5 12 -69.5 12q-39 0 -69.5 -12q-30.5 -12 -53.5 -33q-36 -34 -44 -71.5q-8 -37.5 -8 -77.5zM262 92q-12 -4 -27 -4q-19 0 -32.5 6q-13.5 6 -21.5 14q-14 14 -17.5 29.5q-3.5 15.5 -3.5 31.5v362q0 16 3.5 31.5q3.5 15.5 17.5 29.5q8 8 21.5 14q13.5 6 32.5 6q19 0 32.5 -6q13.5 -6 21.5 -14q14 -14 17.5 -29.5q3.5 -15.5 3.5 -31.5v-375l-45 36l-51 -62z" />
<glyph unicode="&#82;" horiz-adv-x="445" d="M60 700v-700h100v302h59l97 -302h104l-110 323q14 5 28 14q14 9 25 22q16 18 26.5 47.5q10.5 29.5 10.5 63.5v53q0 39 -10 70q-10 31 -27 52q-18 22 -39.5 33q-21.5 11 -45 16q-23.5 5 -46 5.5q-22.5 0.5 -41.5 0.5zM160 610h52q16 0 33 -1.5q17 -1.5 32 -16.5q10 -10 16.5 -27q6.5 -17 6.5 -37v-50q0 -20 -3 -34.5q-3 -14.5 -18 -28.5q-14 -14 -29.5 -18.5q-15.5 -4.5 -32.5 -4.5l-57 0z" />
<glyph unicode="&#83;" horiz-adv-x="440" d="M291 506h100v23q0 88 -46 134.5q-46 46.5 -121 46.5q-35 0 -65.5 -9.5q-30.5 -9.5 -55.5 -33.5q-22 -21 -37 -53.5q-15 -32.5 -15 -76.5v-20q0 -26 2 -52q2 -26 13 -50q15 -35 40 -51.5q25 -16.5 52 -26.5l73 -26q8 -3 23 -10q15 -7 25 -21q10 -14 13 -34q3 -20 3 -38v-26q0 -16 -2.5 -35.5q-2.5 -19.5 -13.5 -33.5q-6 -8 -20 -16.5q-14 -8.5 -43 -8.5q-10 0 -26 3.5q-16 3.5 -29 19.5q-11 14 -13.5 32q-2.5 18 -2.5 30v19h-100v-23q0 -3 0.5 -16q0.5 -13 3.5 -30.5q3 -17.5 9.5 -36.5q6.5 -19 18.5 -35q17 -24 51.5 -42.5q34.5 -18.5 88.5 -18.5q44 0 77 13q33 13 53 33q22 23 35 62q13 39 13 93v24q0 33 -5 63q-5 30 -25 58q-20 27 -44 39.5q-24 12.5 -47 20.5l-61 22q-11 5 -24.5 11.5q-13.5 6.5 -21.5 19.5q-10 14 -13 36.5q-3 22.5 -3 36.5q0 17 3.5 36.5q3.5 19.5 17.5 34.5q12 12 25 15.5q13 3.5 24 3.5q22 0 34 -7.5q12 -7.5 19 -15.5q12 -15 14.5 -34q2.5 -19 2.5 -30z" />
<glyph unicode="&#84;" horiz-adv-x="388" d="M20 700v-95h124v-605h100v605h124l0 95z" />
<glyph unicode="&#85;" horiz-adv-x="454" d="M60 700v-516q0 -58 15.5 -95.5q15.5 -37.5 40 -59.5q24.5 -22 54 -30.5q29.5 -8.5 57.5 -8.5q28 0 57.5 8.5q29.5 8.5 54 30.5q24.5 22 40 59.5q15.5 37.5 15.5 95.5v516h-100v-531q0 -36 -17 -58.5q-17 -22.5 -50 -22.5q-33 0 -50 22.5q-17 22.5 -17 58.5l0 531z" />
<glyph unicode="&#86;" horiz-adv-x="404" d="M394 700h-105l-84 -484h-4l-81 484h-110l148 -700l88 0z" />
<glyph unicode="&#87;" horiz-adv-x="597" d="M15 700l110 -700h90l80 452h7l80 -452h90l110 700h-106l-54 -436h-6l-80 436h-75l-80 -436h-4l-56 436z" />
<glyph unicode="&#88;" horiz-adv-x="437" d="M31 700l134 -330l-150 -370h110l92 253l99 -253h106l-152 370l138 330h-110l-81 -220l-80 220z" />
<glyph unicode="&#89;" horiz-adv-x="414" d="M404 700h-106l-85 -278h-6l-87 278h-110l147 -402v-298h100l0 295z" />
<glyph unicode="&#90;" horiz-adv-x="405" d="M59 700v-90h191l-205 -522v-88h310v90h-205l210 533l0 77z" />
<glyph unicode="&#91;" horiz-adv-x="252" d="M242 700h-182v-904h181v74h-91v756l92 0z" />
<glyph unicode="&#92;" horiz-adv-x="338" d="M65 700h-80l288 -700l80 0z" />
<glyph unicode="&#93;" horiz-adv-x="296" d="M60 700v-74h92v-756h-91v-74h181l0 904z" />
<glyph unicode="&#94;" horiz-adv-x="590" d="M45 271h80l170 339l170 -339h80l-217 429l-66 0z" />
<glyph unicode="&#95;" horiz-adv-x="535" d="M0 -142v-62h535l0 62z" />
<glyph unicode="&#96;" horiz-adv-x="241" d="M114 578h57l-44 122l-107 0z" />
<glyph unicode="&#97;" horiz-adv-x="405" d="M251 0h100v347q0 26 -7 58q-7 32 -34 59q-19 18 -46 29q-27 11 -61 11q-35 0 -64 -11q-29 -11 -48 -30q-17 -17 -29.5 -45q-12.5 -28 -11.5 -62l95 0q1 19 13 32q8 10 18.5 14q10.5 4 21.5 4q25 0 40 -16q9 -10 11 -20.5q2 -10.5 2 -21.5v-52q-23 2 -37.5 2.5q-14.5 0.5 -19.5 0.5q-11 0 -26 -1q-15 -1 -31.5 -5.5q-16.5 -4.5 -32.5 -13q-16 -8.5 -28 -23.5q-11 -13 -17 -29q-6 -16 -9 -32.5q-3 -16.5 -4 -33q-1 -16.5 -1 -29.5q0 -30 6.5 -61q6.5 -31 29.5 -53q19 -17 40 -21.5q21 -4.5 36 -4.5q16 0 30 4q14 4 28 15q11 8 20 19q9 11 14 19l2 0zM251 146q0 -33 -16.5 -48.5q-16.5 -15.5 -39.5 -15.5q-26 0 -40 23q-6 10 -8 20q-2 10 -2 21q0 12 2.5 26.5q2.5 14.5 12.5 25.5q12 14 28 17.5q16 3.5 28 3.5q17 0 35 -3z" />
<glyph unicode="&#98;" horiz-adv-x="410" d="M154 0v44h1q6 -10 15 -19q9 -9 19 -16q14 -9 30 -13q16 -4 31 -4q19 0 33 4.5q14 4.5 24 10.5q10 6 16.5 12.5q6.5 6.5 9.5 10.5q17 23 20 51q3 28 3 52v258q0 18 -4.5 41q-4.5 23 -24.5 43q-15 16 -33.5 22.5q-18.5 6.5 -40.5 6.5q-22 0 -37 -5.5q-15 -5.5 -29 -13.5q-19 -11 -33 -29l0 244h-100v-700zM154 340q0 12 2.5 25q2.5 13 13.5 25q5 5 14.5 10.5q9.5 5.5 23.5 5.5q21 0 35 -15q9 -10 11 -20.5q2 -10.5 2 -19.5v-201q0 -13 -1.5 -23.5q-1.5 -10.5 -11.5 -21.5q-14 -15 -35 -15q-14 0 -23.5 5.5q-9.5 5.5 -14.5 10.5q-11 12 -13.5 25q-2.5 13 -2.5 25z" />
<glyph unicode="&#99;" horiz-adv-x="384" d="M354 346v3q0 29 -10 60q-10 31 -30 52q-19 20 -49 31.5q-30 11.5 -66 11.5q-37 0 -62 -11.5q-25 -11.5 -41 -25.5q-16 -14 -25 -30.5q-9 -16.5 -13.5 -33.5q-4.5 -17 -6 -33.5q-1.5 -16.5 -1.5 -31.5v-171q0 -16 0.5 -33q0.5 -17 4 -34q3.5 -17 11.5 -33.5q8 -16.5 23 -31.5q20 -21 50.5 -32q30.5 -11 64.5 -11q34 0 58.5 10q24.5 10 41.5 24q8 7 17 17.5q9 10.5 16.5 24q7.5 13.5 12 31.5q4.5 18 4.5 40v9h-100v-1q0 -7 -1.5 -18.5q-1.5 -11.5 -9.5 -21.5q-8 -11 -18.5 -14q-10.5 -3 -21.5 -3q-18 0 -27.5 6q-9.5 6 -13.5 11q-7 8 -9.5 19.5q-2.5 11.5 -2.5 22.5v192q0 13 2.5 25q2.5 12 11.5 23q9 11 19.5 14q10.5 3 19.5 3q15 0 25 -5.5q10 -5.5 15 -13.5q7 -10 9 -20q2 -10 2 -19l0 -2z" />
<glyph unicode="&#100;" horiz-adv-x="410" d="M256 0h100v700h-100v-244q-14 18 -33 29q-14 8 -29 13.5q-15 5.5 -37 5.5q-22 0 -40.5 -6.5q-18.5 -6.5 -33.5 -22.5q-20 -20 -24.5 -43q-4.5 -23 -4.5 -41v-258q0 -24 3 -52q3 -28 20 -51q3 -4 9.5 -10.5q6.5 -6.5 16.5 -12.5q10 -6 24 -10.5q14 -4.5 33 -4.5q15 0 31 4q16 4 30 13q10 7 19 16q9 9 15 19l1 0zM256 156q0 -12 -2.5 -25q-2.5 -13 -13.5 -25q-5 -5 -14.5 -10.5q-9.5 -5.5 -23.5 -5.5q-22 0 -35 15q-10 11 -11.5 21.5q-1.5 10.5 -1.5 23.5v201q0 9 2 19.5q2 10.5 11 20.5q13 15 35 15q14 0 23.5 -5.5q9.5 -5.5 14.5 -10.5q11 -12 13.5 -25q2.5 -13 2.5 -25z" />
<glyph unicode="&#101;" horiz-adv-x="397" d="M150 211h202v130q0 15 -1.5 31q-1.5 16 -7 32.5q-5.5 16.5 -15.5 33q-10 16.5 -26 30.5q-19 17 -45.5 26.5q-26.5 9.5 -58.5 9.5q-32 0 -57 -9.5q-25 -9.5 -42 -24.5q-16 -14 -25.5 -29.5q-9.5 -15.5 -15 -31q-5.5 -15.5 -7 -31q-1.5 -15.5 -1.5 -28.5v-190q0 -11 0.5 -26q0.5 -15 4 -31q3.5 -16 11 -32q7.5 -16 20.5 -31q20 -22 50 -35q30 -13 65 -13q26 0 50 7q24 7 43 21q18 13 29 28.5q11 15.5 17 31.5q6 16 8 31.5q2 15.5 2 29.5v4h-100q0 -19 -9 -34q-14 -21 -40 -21q-26 0 -38 14q-9 9 -11 20.5q-2 11.5 -2 22.5zM150 288v61q0 10 2 20.5q2 10.5 10 19.5q14 17 39 17q23 0 37 -14q9 -9 11.5 -19q2.5 -10 2.5 -20l0 -65z" />
<glyph unicode="&#102;" horiz-adv-x="268" d="M77 0h100v416h80v80h-81v51q0 14 2.5 25.5q2.5 11.5 12.5 22.5q11 12 22.5 14.5q11.5 2.5 24.5 2.5h20v88h-36q-26 0 -55 -5.5q-29 -5.5 -52 -25.5q-26 -23 -32 -52q-6 -29 -6 -55v-66h-52v-80l52 0z" />
<glyph unicode="&#103;" horiz-adv-x="406" d="M252 496v-44h-1q-6 10 -15 19q-9 9 -19 16q-14 9 -30 13q-16 4 -31 4q-19 0 -33 -4.5q-14 -4.5 -24 -10.5q-10 -6 -16.5 -12.5q-6.5 -6.5 -9.5 -10.5q-17 -23 -20 -51q-3 -28 -3 -52v-253q0 -18 4.5 -41q4.5 -23 24.5 -43q15 -16 33.5 -22.5q18.5 -6.5 40.5 -6.5q22 0 37 5.5q15 5.5 29 13.5q19 11 33 29l0 -84q0 -15 -2 -29q-2 -14 -9 -24q-5 -8 -15 -13.5q-10 -5.5 -26 -5.5q-8 0 -18.5 2.5q-10.5 2.5 -18.5 11.5q-6 7 -10 16.5q-4 9.5 -3 20.5l-100 0q2 -29 12 -57q10 -28 26 -46q14 -17 41 -31.5q27 -14.5 70 -14.5q44 0 72 14q28 14 43 31q26 27 32 57.5q6 30.5 6 60.5v542zM252 161q0 -12 -2.5 -25q-2.5 -13 -13.5 -25q-5 -5 -14.5 -10.5q-9.5 -5.5 -23.5 -5.5q-21 0 -35 15q-9 11 -11 21.5q-2 10.5 -2 18.5v196q0 12 2 23q2 11 11 22q14 15 35 15q14 0 23.5 -5.5q9.5 -5.5 14.5 -10.5q11 -12 13.5 -25q2.5 -13 2.5 -25z" />
<glyph unicode="&#104;" horiz-adv-x="410" d="M54 0h100v340q0 12 2.5 25q2.5 13 13.5 25q5 5 14.5 10.5q9.5 5.5 23.5 5.5q21 0 35 -15q9 -10 11 -20.5q2 -10.5 2 -19.5v-351h100v391q0 18 -4.5 41q-4.5 23 -24.5 43q-15 16 -33.5 22.5q-18.5 6.5 -40.5 6.5q-22 0 -37 -5.5q-15 -5.5 -29 -13.5q-19 -11 -33 -29l0 244l-100 0z" />
<glyph unicode="&#105;" horiz-adv-x="208" d="M54 0h100v496h-100zM54 686v-98h100l0 98z" />
<glyph unicode="&#106;" horiz-adv-x="210" d="M156 496h-100v-543q0 -9 -1.5 -21q-1.5 -12 -11.5 -23q-5 -5 -14.5 -10q-9.5 -5 -25.5 -5h-18v-98h32q25 0 53.5 5q28.5 5 53.5 32q26 29 29 60.5q3 31.5 3 59.5zM56 686v-98h100l0 98z" />
<glyph unicode="&#107;" horiz-adv-x="403" d="M54 0h100v139l48 75l90 -214h108l-143 294l119 202h-100l-120 -216h-2v420l-100 0z" />
<glyph unicode="&#108;" horiz-adv-x="230" d="M54 700v-564q0 -22 3.5 -46.5q3.5 -24.5 21.5 -47.5q12 -15 26 -23q14 -8 28 -12.5q14 -4.5 26.5 -5.5q12.5 -1 21.5 -1h29v93h-10q-6 0 -15 1.5q-9 1.5 -17 8.5q-9 8 -11.5 18.5q-2.5 10.5 -2.5 19.5l0 559z" />
<glyph unicode="&#109;" horiz-adv-x="608" d="M54 496v-496h100v340q0 12 2.5 25q2.5 13 13.5 25q9 10 18.5 13q9.5 3 18.5 3q20 0 34 -15q9 -11 11 -20.5q2 -9.5 2 -19.5v-351h100v340q0 12 2.5 25q2.5 13 13.5 25q15 16 37 16q20 0 34 -15q8 -10 10.5 -20q2.5 -10 2.5 -20v-351h100v378q0 20 -3.5 42.5q-3.5 22.5 -18.5 43.5q-19 26 -43 33q-24 7 -47 7q-31 0 -55 -14q-14 -8 -25 -19.5q-11 -11.5 -19 -25.5q-5 12 -13.5 23q-8.5 11 -22.5 20q-25 16 -54 16q-22 0 -38.5 -6q-16.5 -6 -29.5 -16q-8 -6 -16 -14q-8 -8 -15 -17l0 45z" />
<glyph unicode="&#110;" horiz-adv-x="410" d="M54 0h100v340q0 12 2.5 25q2.5 13 13.5 25q5 5 14.5 10.5q9.5 5.5 23.5 5.5q21 0 35 -15q9 -10 11 -20.5q2 -10.5 2 -19.5v-351h100v391q0 18 -4.5 41q-4.5 23 -24.5 43q-12 13 -30 21q-18 8 -44 8q-8 0 -19 -1.5q-11 -1.5 -24.5 -7q-13.5 -5.5 -28 -16q-14.5 -10.5 -27.5 -28.5l0 45l-100 0z" />
<glyph unicode="&#111;" horiz-adv-x="402" d="M50 160q0 -15 1 -32q1 -17 6 -34.5q5 -17.5 15 -34.5q10 -17 27 -32q20 -17 47 -26q27 -9 55 -9q28 0 55 9q27 9 47 26q17 15 27 32q10 17 15 34.5q5 17.5 6 34.5q1 17 1 32v176q0 15 -1 32q-1 17 -6 34.5q-5 17.5 -15 34.5q-10 17 -27 32q-20 17 -47 26q-27 9 -55 9q-28 0 -55 -9q-27 -9 -47 -26q-17 -15 -27 -32q-10 -17 -15 -34.5q-5 -17.5 -6 -34.5q-1 -17 -1 -32zM252 154q0 -33 -15 -50q-6 -6 -15.5 -10q-9.5 -4 -20.5 -4q-22 0 -36 14q-15 17 -15 50v188q0 33 15 50q14 14 36 14q22 0 36 -14q15 -17 15 -50z" />
<glyph unicode="&#112;" horiz-adv-x="410" d="M154 496h-100v-700h100v244q14 -18 33 -29q14 -8 29 -13.5q15 -5.5 37 -5.5q22 0 40.5 6.5q18.5 6.5 33.5 22.5q20 20 24.5 43q4.5 23 4.5 41v258q0 24 -3 52q-3 28 -20 51q-3 4 -9.5 10.5q-6.5 6.5 -16.5 12.5q-10 6 -24 10.5q-14 4.5 -33 4.5q-15 0 -31 -4q-16 -4 -30 -13q-10 -7 -19 -16q-9 -9 -15 -19l-1 0zM154 340q0 12 2.5 25q2.5 13 13.5 25q5 5 14.5 10.5q9.5 5.5 23.5 5.5q21 0 35 -15q10 -11 11.5 -21.5q1.5 -10.5 1.5 -23.5v-201q0 -9 -2 -19.5q-2 -10.5 -11 -20.5q-14 -15 -35 -15q-14 0 -23.5 5.5q-9.5 5.5 -14.5 10.5q-11 12 -13.5 25q-2.5 13 -2.5 25z" />
<glyph unicode="&#113;" horiz-adv-x="410" d="M256 496v-44h-1q-6 10 -15 19q-9 9 -19 16q-14 9 -30 13q-16 4 -31 4q-19 0 -33 -4.5q-14 -4.5 -24 -10.5q-10 -6 -16.5 -12.5q-6.5 -6.5 -9.5 -10.5q-17 -23 -20 -51q-3 -28 -3 -52v-258q0 -18 4.5 -41q4.5 -23 24.5 -43q15 -16 33.5 -22.5q18.5 -6.5 40.5 -6.5q22 0 37 5.5q15 5.5 29 13.5q19 11 33 29l0 -244h100v700zM256 156q0 -12 -2.5 -25q-2.5 -13 -13.5 -25q-5 -5 -14.5 -10.5q-9.5 -5.5 -23.5 -5.5q-22 0 -35 15q-9 10 -11 20.5q-2 10.5 -2 19.5v201q0 13 1.5 23.5q1.5 10.5 11.5 21.5q13 15 35 15q14 0 23.5 -5.5q9.5 -5.5 14.5 -10.5q11 -12 13.5 -25q2.5 -13 2.5 -25z" />
<glyph unicode="&#114;" horiz-adv-x="297" d="M54 496v-496h100v284q0 41 14 65q14 24 34.5 35.5q20.5 11.5 43.5 13.5q23 2 41 -1l0 107q-13 0 -29.5 -2.5q-16.5 -2.5 -34 -9.5q-17.5 -7 -35 -19q-17.5 -12 -32.5 -31l-2 1l0 53z" />
<glyph unicode="&#115;" horiz-adv-x="371" d="M336 362q0 29 -10 56.5q-10 27.5 -28 45.5q-13 14 -40.5 27q-27.5 13 -75.5 13q-41 0 -66.5 -12.5q-25.5 -12.5 -40.5 -27.5q-16 -17 -26.5 -44q-10.5 -27 -10.5 -64q0 -19 5 -41.5q5 -22.5 22 -42.5q5 -5 19 -17.5q14 -12.5 43 -24.5l59 -25q32 -14 41 -28.5q9 -14.5 9 -34.5q0 -10 -2.5 -20.5q-2.5 -10.5 -10.5 -19.5q-8 -9 -18 -13q-10 -4 -21 -4q-11 0 -22.5 4q-11.5 4 -18.5 12q-7 8 -10 18q-3 10 -3 20l-100 0q0 -27 9 -55q9 -28 28 -48q15 -17 43 -30.5q28 -13.5 73 -13.5q48 0 76.5 15q28.5 15 44.5 35q20 25 26 52q6 27 6 45q0 32 -7 54.5q-7 22.5 -18 36.5q-11 14 -28 27q-17 13 -36 21l-60 25q-10 4 -20.5 9.5q-10.5 5.5 -18.5 16.5q-6 8 -8 16.5q-2 8.5 -2 15.5q0 26 15 38q15 12 34 12q23 0 36 -13q13 -14 15 -36z" />
<glyph unicode="&#116;" horiz-adv-x="255" d="M66 647v-151h-51v-80h51v-281q0 -23 4 -50q4 -27 25 -50q12 -13 26 -20q14 -7 28.5 -10.5q14.5 -3.5 28.5 -4q14 -0.5 25 -0.5h27v93h-13q-7 0 -18 1q-11 1 -19 8q-10 8 -12 21q-2 13 -2 21v272h64v80h-64l0 151z" />
<glyph unicode="&#117;" horiz-adv-x="410" d="M356 496h-100v-340q0 -10 -2.5 -23q-2.5 -13 -13.5 -25q-7 -8 -17.5 -13q-10.5 -5 -24.5 -5q-12 0 -19.5 4q-7.5 4 -12.5 9q-8 9 -10 20q-2 11 -2 22v351h-100v-391q0 -18 4 -38.5q4 -20.5 16 -37.5q9 -13 27.5 -25q18.5 -12 50.5 -12q39 0 69 21q14 11 23.5 23q9.5 12 11.5 14l0 -50l100 0z" />
<glyph unicode="&#118;" horiz-adv-x="357" d="M352 496h-100l-67 -315h-5l-67 315h-105l132 -496l80 0z" />
<glyph unicode="&#119;" horiz-adv-x="545" d="M8 496l118 -496h85l60 304h5l60 -304h85l118 496h-100l-62 -314l-61 314h-83l-59 -314l-64 314z" />
<glyph unicode="&#120;" horiz-adv-x="358" d="M7 0h105l68 152l68 -152h105l-124 253l118 243h-105l-62 -141l-62 141h-105l116 -243z" />
<glyph unicode="&#121;" horiz-adv-x="372" d="M10 496l145 -473l-16 -65q-6 -24 -10.5 -34q-4.5 -10 -7.5 -14q-11 -14 -23.5 -17.5q-12.5 -3.5 -23.5 -3.5h-19l2 -93h26q23 0 50 4.5q27 4.5 50 26.5q22 22 31.5 53q9.5 31 14.5 53l136 563h-100l-62 -308h-4l-81 308z" />
<glyph unicode="&#122;" horiz-adv-x="339" d="M38 411h164l-177 -329v-82h289v85h-183l183 339v72l-276 0z" />
<glyph unicode="&#123;" horiz-adv-x="266" d="M185 538q0 13 2.5 32q2.5 19 15.5 33q11 12 23.5 14.5q12.5 2.5 19.5 2.5h10v80h-16q-42 0 -68.5 -15.5q-26.5 -15.5 -39.5 -30.5q-14 -16 -21.5 -34q-7.5 -18 -11 -35q-3.5 -17 -4 -31.5q-0.5 -14.5 -0.5 -22.5v-122q0 -14 -1.5 -34q-1.5 -20 -7.5 -34q-8 -20 -26.5 -34.5q-18.5 -14.5 -49.5 -13.5l0 -90q31 1 49.5 -13.5q18.5 -14.5 26.5 -34.5q6 -14 7.5 -34q1.5 -20 1.5 -34v-122q0 -13 1 -28.5q1 -15.5 4.5 -31.5q3.5 -16 11 -32.5q7.5 -16.5 20.5 -30.5q20 -22 49.5 -34q29.5 -12 58.5 -12h16v80h-10q-21 0 -33 8.5q-12 8.5 -18.5 21q-6.5 12.5 -8 27q-1.5 14.5 -1.5 25.5v130q0 41 -6 69q-6 28 -18 47q-7 11 -21.5 24q-14.5 13 -40.5 20q26 7 40.5 20q14.5 13 21.5 24q24 37 24 116z" />
<glyph unicode="&#124;" horiz-adv-x="190" d="M60 710v-914h70l0 914z" />
<glyph unicode="&#125;" horiz-adv-x="266" d="M81 408q0 -79 24 -116q7 -11 21.5 -24q14.5 -13 40.5 -20q-26 -7 -40.5 -20q-14.5 -13 -21.5 -24q-12 -19 -18 -47q-6 -28 -6 -69v-130q0 -11 -1.5 -25.5q-1.5 -14.5 -8 -27q-6.5 -12.5 -18.5 -21q-12 -8.5 -33 -8.5h-10v-80h16q29 0 58.5 12q29.5 12 49.5 34q13 14 20 30.5q7 16.5 11 32.5q4 16 5 31.5q1 15.5 1 28.5v122q0 14 1.5 34q1.5 20 7.5 34q8 20 26.5 34.5q18.5 14.5 49.5 13.5l0 90q-31 -1 -49.5 13.5q-18.5 14.5 -26.5 34.5q-6 14 -7.5 34q-1.5 20 -1.5 34v122q0 8 -0.5 22.5q-0.5 14.5 -4 31.5q-3.5 17 -11 35q-7.5 18 -21.5 34q-13 15 -39.5 30.5q-26.5 15.5 -68.5 15.5h-16v-80h10q7 0 19.5 -2.5q12.5 -2.5 23.5 -14.5q13 -14 15.5 -33q2.5 -19 2.5 -32z" />
<glyph unicode="&#126;" horiz-adv-x="442" d="M318 374q0 -8 -2.5 -16.5q-2.5 -8.5 -6.5 -13.5q-3 -4 -10 -8.5q-7 -4.5 -21 -4.5q-11 0 -22 3.5q-11 3.5 -23 8.5l-20 7q-11 4 -27 8.5q-16 4.5 -35 4.5q-32 0 -50.5 -13q-18.5 -13 -27.5 -27q-11 -17 -15 -38.5q-4 -21.5 -4 -37.5v-3h70q0 8 2.5 16.5q2.5 8.5 6.5 13.5q3 4 10 8.5q7 4.5 21 4.5q11 0 22 -3.5q11 -3.5 23 -8.5l20 -7q11 -4 27 -8.5q16 -4.5 35 -4.5q32 0 50.5 13q18.5 13 27.5 27q11 17 15 38.5q4 21.5 4 37.5l0 3z" />
<glyph unicode="&#160;" horiz-adv-x="233" />
<glyph unicode="&#161;" horiz-adv-x="210" d="M45 0h120l-23 525h-80zM47 590h110v110l-110 0z" />
<glyph unicode="&#162;" horiz-adv-x="391" d="M361 417v10q0 30 -12.5 58.5q-12.5 28.5 -29.5 46.5q-18 18 -43 29q-25 11 -53 13l0 80h-40v-80q-3 0 -13 -1.5q-10 -1.5 -22.5 -5.5q-12.5 -4 -27 -10.5q-14.5 -6.5 -27.5 -18.5q-16 -14 -25.5 -30.5q-9.5 -16.5 -14.5 -33.5q-5 -17 -6.5 -33.5q-1.5 -16.5 -1.5 -31.5v-155q0 -16 0.5 -33q0.5 -17 4 -34q3.5 -17 12 -33.5q8.5 -16.5 24.5 -31.5q20 -19 46 -29.5q26 -10.5 51 -12.5l0 -80h40v80q26 2 48 11q22 9 38 22q32 26 42 56q10 30 10 57v9h-100v-9q0 -8 -3.5 -17.5q-3.5 -9.5 -8.5 -14.5q-9 -10 -26 -15l0 296q16 -4 26 -16q5 -5 8.5 -14q3.5 -9 3.5 -16v-12zM183 180q-5 1 -11.5 3.5q-6.5 2.5 -13.5 10.5q-8 11 -10.5 22.5q-2.5 11.5 -2.5 19.5v176q0 12 2 24.5q2 12.5 14 25.5q10 10 22 13z" />
<glyph unicode="&#163;" horiz-adv-x="431" d="M258 369h-81v179q0 4 1 15.5q1 11.5 6 22.5q5 11 15 20q10 9 29 9q14 0 23 -5.5q9 -5.5 14 -10.5q8 -9 9.5 -19.5q1.5 -10.5 1.5 -15.5v-30h100v41q0 22 -6 45.5q-6 23.5 -22 43.5q-16 20 -44.5 33q-28.5 13 -74.5 13q-30 0 -59.5 -7q-29.5 -7 -54.5 -36q-13 -15 -25.5 -43.5q-12.5 -28.5 -12.5 -74.5v-180h-52v-80h52v-199h-52v-90h314v90h-162v199l81 0z" />
<glyph unicode="&#164;" horiz-adv-x="592" d="M51 162l63 -63l74 74q11 -8 37 -20q26 -12 71 -12q45 0 71 12q26 12 37 20l74 -74l63 63l-74 74q8 10 19 33q11 23 11 73q0 25 -3 43q-3 18 -7.5 30q-4.5 12 -10 20q-5.5 8 -9.5 13l74 73l-63 64l-74 -74q-10 8 -35.5 20q-25.5 12 -72.5 12q-47 0 -72.5 -12q-25.5 -12 -35.5 -20l-74 74l-63 -64l74 -73q-21 -34 -25.5 -63q-4.5 -29 -4.5 -43q0 -14 4.5 -43q4.5 -29 25.5 -63zM173 342q0 25 9.5 47.5q9.5 22.5 26.5 39q17 16.5 39 26.5q22 10 48 10q25 0 47.5 -10q22.5 -10 39.5 -26.5q17 -16.5 26.5 -39q9.5 -22.5 9.5 -47.5q0 -26 -10 -48.5q-10 -22.5 -26.5 -39q-16.5 -16.5 -39 -26q-22.5 -9.5 -47.5 -9.5q-25 0 -47.5 9.5q-22.5 9.5 -39 26q-16.5 16.5 -26.5 39t-10 48.5z" />
<glyph unicode="&#165;" horiz-adv-x="444" d="M44 267v-70h128v-197h100v197h128v70h-128v28l15 42h113v70h-87l106 293h-106l-85 -293h-6l-87 293h-110l107 -293h-88v-70h114l14 -39l0 -31z" />
<glyph unicode="&#166;" horiz-adv-x="190" d="M60 163v-367h70v367zM60 710v-367h70l0 367z" />
<glyph unicode="&#167;" horiz-adv-x="406" d="M262 542h95v13q0 29 -8.5 54q-8.5 25 -31.5 48q-24 24 -52 33.5q-28 9.5 -60 9.5q-31 0 -55 -7.5q-24 -7.5 -41 -18.5q-17 -12 -34.5 -36.5q-17.5 -24.5 -17.5 -66.5q0 -35 10.5 -58.5q10.5 -23.5 33.5 -43.5q-10 -7 -20.5 -15.5q-10.5 -8.5 -18.5 -17.5q-14 -17 -20.5 -36q-6.5 -19 -6.5 -39q0 -23 5.5 -42q5.5 -19 14.5 -33q17 -26 40 -41q23 -15 46 -27l41 -21q9 -5 21 -10.5q12 -5.5 22 -13q10 -7.5 17 -18q7 -10.5 7 -24.5q0 -22 -17 -34q-11 -9 -32 -9q-17 0 -28.5 5.5q-11.5 5.5 -16.5 13.5q-5 6 -8 15q-3 9 -3 17v9h-95v-13q0 -29 8.5 -54q8.5 -25 31.5 -48q24 -24 52 -33.5q28 -9.5 60 -9.5q31 0 55 7.5q24 7.5 41 18.5q18 13 35 37q17 24 17 66q0 31 -10 54.5q-10 23.5 -34 47.5q10 6 22.5 16.5q12.5 10.5 21.5 22.5q8 11 15 27.5q7 16.5 7 41.5q0 20 -4.5 39q-4.5 19 -15.5 36q-17 26 -40 41q-23 15 -46 27l-41 21q-9 5 -21 10.5q-12 5.5 -22 13q-10 7.5 -17 18q-7 10.5 -7 24.5q0 22 17 34q11 9 32 9q17 0 28.5 -5.5q11.5 -5.5 16.5 -13.5q5 -6 8 -15q3 -9 3 -17zM217 395q8 -5 21 -12.5q13 -7.5 21 -17.5q7 -8 9.5 -18q2.5 -10 2.5 -18q0 -2 -1.5 -11.5q-1.5 -9.5 -9.5 -20.5q-9 -12 -24 -22l-47 24q-8 5 -21 12.5q-13 7.5 -21 17.5q-12 15 -12 35q0 14 7 27q5 8 12.5 16q7.5 8 13.5 13z" />
<glyph unicode="&#168;" horiz-adv-x="360" d="M149 683h-95v-95h95zM211 588h95v95l-95 0z" />
<glyph unicode="&#169;" horiz-adv-x="682" d="M450 469q0 24 -5.5 43q-5.5 19 -25.5 35q-18 15 -38 20q-20 5 -40 5q-20 0 -40 -5q-20 -5 -38 -20q-20 -16 -25.5 -35q-5.5 -19 -5.5 -43v-110q0 -24 5.5 -43q5.5 -19 25.5 -35q18 -15 38 -20q20 -5 40 -5q20 0 40 5q20 5 38 20q20 16 25.5 35q5.5 19 5.5 43v9h-76v-10q0 -5 -0.5 -12.5q-0.5 -7.5 -5.5 -12.5q-5 -5 -12 -8q-7 -3 -15 -3q-17 0 -26 11q-5 6 -6 13q-1 7 -1 12v112q0 5 1 12q1 7 6 13q9 11 26 11q17 0 26 -11q5 -6 6 -13q1 -7 1 -12v-10h76zM107 414q0 49 18.5 91.5q18.5 42.5 50 74q31.5 31.5 74 50q42.5 18.5 91.5 18.5q49 0 91.5 -18.5q42.5 -18.5 74 -50q31.5 -31.5 50 -74q18.5 -42.5 18.5 -91.5q0 -49 -18.5 -91.5q-18.5 -42.5 -50 -74q-31.5 -31.5 -74 -50q-42.5 -18.5 -91.5 -18.5q-49 0 -91.5 18.5q-42.5 18.5 -74 50q-31.5 31.5 -50 74q-18.5 42.5 -18.5 91.5zt0 0zM45 414q0 -61 23.5 -115q23.5 -54 63.5 -94q40 -40 94 -63.5q54 -23.5 115 -23.5q61 0 115 23.5q54 23.5 94 63.5q40 40 63.5 94q23.5 54 23.5 115q0 61 -23.5 115q-23.5 54 -63.5 94q-40 40 -94 63.5q-54 23.5 -115 23.5q-61 0 -115 -23.5q-54 -23.5 -94 -63.5q-40 -40 -63.5 -94t-23.5 -115z" />
<glyph unicode="&#170;" horiz-adv-x="308" d="M187 573q-20 3 -44 3q-21 0 -41.5 -4.5q-20.5 -4.5 -35.5 -20.5q-14 -14 -17.5 -33.5q-3.5 -19.5 -3.5 -45.5q0 -14 4 -33q4 -19 16 -33q6 -8 20 -15q14 -7 38 -7q14 0 33 7q19 7 31 31l0 -33h76v218q0 20 -7.5 37q-7.5 17 -18.5 28q-11 11 -30.5 19.5q-19.5 8.5 -52.5 8.5q-15 0 -35.5 -4q-20.5 -4 -38.5 -21q-7 -7 -17.5 -23q-10.5 -16 -10.5 -43l73 0q0 12 6 20q7 12 22 12q11 0 17.5 -3.5q6.5 -3.5 9.5 -7.5q2 -2 4.5 -7.5q2.5 -5.5 2.5 -14.5zM187 499q0 -5 -1 -14.5q-1 -9.5 -6 -18.5q-6 -11 -13.5 -15q-7.5 -4 -13.5 -4q-5 0 -10.5 1q-5.5 1 -10.5 5q-7 5 -8.5 12.5q-1.5 7.5 -1.5 13.5v10q0 17 9 26q8 10 28 10q6 0 14.5 -1q8.5 -1 13.5 -2z" />
<glyph unicode="&#171;" horiz-adv-x="448" d="M423 479l-203 -202l203 -202v102l-101 100l101 100zM238 479l-203 -202l203 -202v102l-101 100l101 100z" />
<glyph unicode="&#172;" horiz-adv-x="686" d="M549 387h-408v-61h328v-164l80 0z" />
<glyph unicode="&#173;" horiz-adv-x="314" d="M45 351v-90h224l0 90z" />
<glyph unicode="&#174;" horiz-adv-x="682" d="M107 414q0 49 18.5 91.5q18.5 42.5 50 74q31.5 31.5 74 50q42.5 18.5 91.5 18.5q49 0 91.5 -18.5q42.5 -18.5 74 -50q31.5 -31.5 50 -74q18.5 -42.5 18.5 -91.5q0 -49 -18.5 -91.5q-18.5 -42.5 -50 -74q-31.5 -31.5 -74 -50q-42.5 -18.5 -91.5 -18.5q-49 0 -91.5 18.5q-42.5 18.5 -74 50q-31.5 31.5 -50 74q-18.5 42.5 -18.5 91.5zt0 0zM241 256h76v117h29l45 -117h82l-56 133q9 4 15 8.5q6 4.5 8 7.5q13 14 16 29.5q3 15.5 3 27.5v19q0 19 -5.5 37.5q-5.5 18.5 -25.5 33.5q-18 14 -38.5 17q-20.5 3 -38.5 3h-110zM317 438v68h27q6 0 13.5 -1.5q7.5 -1.5 14.5 -6.5q11 -8 11 -27q0 -15 -9 -24q-7 -7 -16 -8q-9 -1 -14 -1zM45 414q0 -61 23.5 -115q23.5 -54 63.5 -94q40 -40 94 -63.5q54 -23.5 115 -23.5q61 0 115 23.5q54 23.5 94 63.5q40 40 63.5 94q23.5 54 23.5 115q0 61 -23.5 115q-23.5 54 -63.5 94q-40 40 -94 63.5q-54 23.5 -115 23.5q-61 0 -115 -23.5q-54 -23.5 -94 -63.5q-40 -40 -63.5 -94t-23.5 -115z" />
<glyph unicode="&#175;" horiz-adv-x="332" d="M54 668v-70h224l0 70z" />
<glyph unicode="&#176;" horiz-adv-x="330" d="M25 543q0 -33 13 -60.5q13 -27.5 32 -44.5q17 -16 41.5 -25.5q24.5 -9.5 53.5 -9.5q33 0 61 13q28 13 45 33q15 17 24.5 41q9.5 24 9.5 53q0 30 -10.5 54.5q-10.5 24.5 -27.5 42.5q-21 23 -48 33q-27 10 -54 10q-25 0 -50.5 -9q-25.5 -9 -47.5 -30q-26 -25 -34 -53q-8 -28 -8 -48zt0 0zM85 543q0 33 23.5 56.5q23.5 23.5 56.5 23.5q33 0 56.5 -23.5q23.5 -23.5 23.5 -56.5q0 -33 -23.5 -56.5q-23.5 -23.5 -56.5 -23.5q-33 0 -56.5 23.5t-23.5 56.5z" />
<glyph unicode="&#177;" horiz-adv-x="514" d="M60 331v-80h157v-127h80v127h157v80h-157v157h-80v-157zM60 80v-80h394l0 80z" />
<glyph unicode="&#178;" horiz-adv-x="311" d="M190 604q0 -5 -2 -12q-2 -7 -4 -12q-2 -5 -7.5 -12q-5.5 -7 -9.5 -11l-112 -118v-50h209v60h-110l61 64q12 12 21.5 22.5q9.5 10.5 19.5 30.5q5 9 7.5 18.5q2.5 9.5 2.5 22.5v7q0 20 -7.5 34q-7.5 14 -18.5 25q-19 17 -40.5 22q-21.5 5 -42.5 5q-15 0 -35.5 -4q-20.5 -4 -38.5 -21q-10 -9 -19 -26q-9 -17 -9 -40v-6h73v6q0 4 1 9.5q1 5.5 5 10.5q7 12 25 12q5 0 11.5 -1.5q6.5 -1.5 12.5 -9.5q7 -9 7 -18z" />
<glyph unicode="&#179;" horiz-adv-x="311" d="M190 603q0 -8 -3.5 -13q-3.5 -5 -6.5 -7q-5 -3 -12.5 -5q-7.5 -2 -13.5 -2h-14v-60h19q10 0 21 -7q10 -8 10 -21v-15q0 -6 -2.5 -10.5q-2.5 -4.5 -4.5 -7.5q-4 -4 -10 -7q-6 -3 -14 -3q-16 0 -25 11q-6 7 -6 20v6h-73v-6q0 -23 9 -40q9 -17 19 -26q18 -17 38.5 -21q20.5 -4 35.5 -4q21 0 42.5 5q21.5 5 40.5 22q11 11 18.5 25q7.5 14 7.5 34v14q0 46 -41 60q23 5 32 22.5q9 17.5 9 34.5v12q0 20 -7.5 34q-7.5 14 -18.5 25q-19 17 -40.5 22q-21.5 5 -42.5 5q-15 0 -35.5 -4q-20.5 -4 -38.5 -21q-10 -9 -19 -26q-9 -17 -9 -40v-6h73v6q0 12 6 20q9 11 25 11q8 0 14 -3q6 -3 10 -7q2 -3 4.5 -7.5q2.5 -4.5 2.5 -10.5z" />
<glyph unicode="&#180;" horiz-adv-x="241" d="M127 578l94 122h-107l-44 -122z" />
<glyph unicode="&#181;" horiz-adv-x="420" d="M366 496h-100v-340q0 -10 -2.5 -23q-2.5 -13 -14.5 -25q-9 -9 -21.5 -13.5q-12.5 -4.5 -24.5 -4.5q-21 0 -34 13q-11 10 -13 21.5q-2 11.5 -2 20.5v351h-100v-700h100v209q8 -5 17 -9q9 -4 22 -4q17 0 29.5 6.5q12.5 6.5 21 15.5q8.5 9 14 19q5.5 10 8.5 17l0 -50l100 0z" />
<glyph unicode="&#182;" horiz-adv-x="490" d="M475 700h-274q-32 0 -64.5 -10q-32.5 -10 -52.5 -27q-14 -11 -30.5 -37q-16.5 -26 -16.5 -73v-120q0 -21 6.5 -51q6.5 -30 33.5 -56q13 -13 27 -20.5q14 -7.5 28 -11.5q14 -4 27.5 -5.5q13.5 -1.5 24.5 -1.5h12v-491h72v834h74v-834h72v834l61 0z" />
<glyph unicode="&#183;" horiz-adv-x="340" d="M100 350q0 -29 20.5 -49.5q20.5 -20.5 49.5 -20.5q29 0 49.5 20.5q20.5 20.5 20.5 49.5q0 29 -20.5 49.5q-20.5 20.5 -49.5 20.5q-29 0 -49.5 -20.5t-20.5 -49.5z" />
<glyph unicode="&#184;" horiz-adv-x="423" d="M203 0l-5 -78q9 2 20 1.5q11 -0.5 19 -5.5q9 -6 9 -18q0 -10 -7 -17q-4 -4 -10 -5.5q-6 -1.5 -12 -1.5q-8 0 -18 4q-3 2 -6 3.5q-3 1.5 -6 4.5l-37 -33q29 -33 77 -33q17 0 32.5 4.5q15.5 4.5 28.5 15.5q8 8 16.5 21.5q8.5 13.5 8.5 34.5q0 31 -22 49q-10 8 -22.5 12q-12.5 4 -24.5 4l3 37z" />
<glyph unicode="&#185;" horiz-adv-x="311" d="M135 389h76v311h-68l-53 -40v-80l45 34z" />
<glyph unicode="&#186;" horiz-adv-x="308" d="M263 597q0 24 -5.5 43q-5.5 19 -25.5 35q-18 15 -38 20q-20 5 -40 5q-20 0 -40 -5q-20 -5 -38 -20q-20 -16 -25.5 -35q-5.5 -19 -5.5 -43v-110q0 -24 5.5 -43q5.5 -19 25.5 -35q18 -15 38 -20q20 -5 40 -5q20 0 40 5q20 5 38 20q20 16 25.5 35q5.5 19 5.5 43zM121 598q0 5 1 12q1 7 6 13q9 11 26 11q17 0 26 -11q5 -6 6 -13q1 -7 1 -12v-112q0 -5 -0.5 -12.5q-0.5 -7.5 -5.5 -12.5q-5 -5 -12 -8q-7 -3 -15 -3q-17 0 -26 11q-5 6 -6 13q-1 7 -1 12z" />
<glyph unicode="&#187;" horiz-adv-x="448" d="M25 479v-102l101 -100l-101 -100v-102l203 202zM210 479v-102l101 -100l-101 -100v-102l203 202z" />
<glyph unicode="&#188;" horiz-adv-x="630" d="M113 389h76v311h-68l-53 -40v-80l45 34zM409 700l-288 -700h80l288 700zM451 307l-113 -221v-39h135v-47h76v47h36v60h-36v67h-66v-67h-54l103 200z" />
<glyph unicode="&#189;" horiz-adv-x="630" d="M95 389h76v311h-68l-53 -40v-80l45 34zM391 700l-288 -700h80l288 700zM509 215q0 -5 -2 -12q-2 -7 -4 -12q-2 -5 -7.5 -12q-5.5 -7 -9.5 -11l-112 -118v-50h209v60h-110l61 64q12 12 21.5 22.5q9.5 10.5 19.5 30.5q5 9 7.5 18.5q2.5 9.5 2.5 22.5v7q0 20 -7.5 34q-7.5 14 -18.5 25q-19 17 -40.5 22q-21.5 5 -42.5 5q-15 0 -35.5 -4q-20.5 -4 -38.5 -21q-10 -9 -19 -26q-9 -17 -9 -40v-6h73v6q0 4 1 9.5q1 5.5 5 10.5q7 12 25 12q6 0 12.5 -2q6.5 -2 11.5 -9q2 -3 4.5 -7.5q2.5 -4.5 2.5 -10.5z" />
<glyph unicode="&#190;" horiz-adv-x="630" d="M170 603q0 -8 -3.5 -13q-3.5 -5 -6.5 -7q-5 -3 -12.5 -5q-7.5 -2 -13.5 -2h-14v-60h19q10 0 21 -7q10 -8 10 -21v-15q0 -6 -2.5 -10.5q-2.5 -4.5 -4.5 -7.5q-4 -4 -10 -7q-6 -3 -14 -3q-16 0 -25 11q-6 7 -6 20v6h-73v-6q0 -23 9 -40q9 -17 19 -26q18 -17 38.5 -21q20.5 -4 35.5 -4q21 0 42.5 5q21.5 5 40.5 22q11 11 18.5 25q7.5 14 7.5 34v14q0 46 -41 60q23 5 32 22.5q9 17.5 9 34.5v12q0 20 -7.5 34q-7.5 14 -18.5 25q-19 17 -40.5 22q-21.5 5 -42.5 5q-15 0 -35.5 -4q-20.5 -4 -38.5 -21q-10 -9 -19 -26q-9 -17 -9 -40v-6h73v6q0 12 6 20q9 11 25 11q8 0 14 -3q6 -3 10 -7q2 -3 4.5 -7.5q2.5 -4.5 2.5 -10.5zM419 700l-288 -700h80l288 700zM461 307l-113 -221v-39h135v-47h76v47h36v60h-36v67h-66v-67h-54l103 200z" />
<glyph unicode="&#191;" horiz-adv-x="354" d="M233 527h-100v-57q0 -13 -1.5 -31q-1.5 -18 -13.5 -37l-70 -111q-14 -23 -18.5 -49q-4.5 -26 -4.5 -54v-55q0 -42 16.5 -68q16.5 -26 28.5 -37q41 -38 115 -38q29 0 52.5 8q23.5 8 40.5 21q21 16 38.5 46q17.5 30 17.5 69v60h-100v-48q0 -11 -3.5 -22.5q-3.5 -11.5 -8.5 -18.5q-5 -7 -15 -12q-10 -5 -25 -5q-11 0 -22 2.5q-11 2.5 -20 11.5q-10 10 -12.5 20.5q-2.5 10.5 -2.5 21.5v42q0 10 2.5 28.5q2.5 18.5 14.5 37.5l57 90q13 20 20 32q7 12 10 22q3 10 3.5 20.5q0.5 10.5 0.5 27.5zM238 590v110h-110l0 -110z" />
<glyph unicode="&#192;" horiz-adv-x="429" d="M404 0l-153 700h-88l-153 -700h100l33 150h128l33 -150zM259 239h-106l52 266zM201 764h71l-44 105l-121 0z" />
<glyph unicode="&#193;" horiz-adv-x="429" d="M404 0l-153 700h-88l-153 -700h100l33 150h128l33 -150zM259 239h-106l52 266zM219 764l106 105h-121l-50 -105z" />
<glyph unicode="&#194;" horiz-adv-x="429" d="M404 0l-153 700h-88l-153 -700h100l33 150h128l33 -150zM259 239h-106l52 266zM211 822l60 -58h64l-57 105h-134l-57 -105l64 0z" />
<glyph unicode="&#195;" horiz-adv-x="429" d="M404 0l-153 700h-88l-153 -700h100l33 150h128l33 -150zM259 239h-106l52 266zM85 761h55q0 13 6 22q3 4 8 7.5q5 3.5 13 3.5q7 0 13.5 -2q6.5 -2 18.5 -7l14 -5q13 -5 24 -7.5q11 -2.5 22 -2.5q39 0 59 33q8 14 10.5 30q2.5 16 2.5 27v3h-55q2 -13 -6 -23q-8 -10 -22 -10q-8 0 -16.5 3q-8.5 3 -14.5 5l-16 6q-16 6 -26 8q-10 2 -17 2q-14 0 -30 -6q-16 -6 -28 -26q-8 -14 -11.5 -30q-3.5 -16 -3.5 -26z" />
<glyph unicode="&#196;" horiz-adv-x="429" d="M404 0l-153 700h-88l-153 -700h100l33 150h128l33 -150zM259 239h-106l52 266zM173 864h-95v-100h95zM235 764h95v100l-95 0z" />
<glyph unicode="&#197;" horiz-adv-x="429" d="M404 0l-153 700h-88l-153 -700h100l33 150h128l33 -150zM259 239h-106l52 266zM129 822q0 -33 23.5 -56.5q23.5 -23.5 56.5 -23.5q33 0 56.5 23.5q23.5 23.5 23.5 56.5q0 33 -23.5 56.5q-23.5 23.5 -56.5 23.5q-33 0 -56.5 -23.5q-23.5 -23.5 -23.5 -56.5zt0 0zM179 822q0 13 8.5 21.5q8.5 8.5 21.5 8.5q13 0 21.5 -8.5q8.5 -8.5 8.5 -21.5q0 -13 -8.5 -21.5q-8.5 -8.5 -21.5 -8.5q-13 0 -21.5 8.5t-8.5 21.5z" />
<glyph unicode="&#198;" horiz-adv-x="624" d="M589 0v95h-200v214h174v89h-174v207h197v95h-297l-294 -700h106l63 150h125v-150zM293 239h-103l99 233l4 0z" />
<glyph unicode="&#199;" horiz-adv-x="434" d="M289 501h97v48q0 37 -13 67q-13 30 -32 49q-23 22 -56 33.5q-33 11.5 -65 11.5q-28 0 -59.5 -10q-31.5 -10 -54.5 -31q-34 -29 -42.5 -66q-8.5 -37 -8.5 -71v-363q0 -27 4 -60.5q4 -33.5 31 -65.5q17 -20 45 -35q28 -15 64 -17l-4 -69q10 3 20.5 2q10.5 -1 17.5 -7q5 -4 6.5 -9q1.5 -5 1.5 -9q0 -9 -7 -16q-4 -4 -10 -5.5q-6 -1.5 -12 -1.5q-8 0 -18 4q-3 2 -6 3.5q-3 1.5 -6 4.5l-37 -36q11 -12 25 -20q13 -8 25 -10.5q12 -2.5 26 -2.5q17 0 33.5 4q16.5 4 30.5 17q8 7 16.5 21q8.5 14 8.5 37q0 19 -6.5 31q-6.5 12 -14.5 18q-8 8 -20.5 12.5q-12.5 4.5 -26.5 4.5l2 27q30 2 57.5 14q27.5 12 45.5 32q4 4 11 14q7 10 14 25.5q7 15.5 12 37.5q5 22 5 51v29h-100v-25q0 -26 -5 -39q-5 -13 -9 -18q-9 -12 -24 -18q-15 -6 -32 -6q-21 0 -33.5 8.5q-12.5 8.5 -17.5 16.5q-10 14 -11.5 29.5q-1.5 15.5 -1.5 32.5v345q0 18 2.5 36q2.5 18 14.5 33q8 9 20 16q12 7 32 7q24 0 36 -10q12 -10 16 -15q7 -10 10 -22.5q3 -12.5 3 -23.5z" />
<glyph unicode="&#200;" horiz-adv-x="395" d="M60 0h300v95h-200v214h174v90h-174v206h197v95h-297zM184 764h71l-44 105l-121 0z" />
<glyph unicode="&#201;" horiz-adv-x="395" d="M60 0h300v95h-200v214h174v90h-174v206h197v95h-297zM202 764l106 105h-121l-50 -105z" />
<glyph unicode="&#202;" horiz-adv-x="395" d="M60 0h300v95h-200v214h174v90h-174v206h197v95h-297zM197 822l60 -58h64l-57 105h-134l-57 -105l64 0z" />
<glyph unicode="&#203;" horiz-adv-x="395" d="M60 0h300v95h-200v214h174v90h-174v206h197v95h-297zM166 864h-95v-100h95zM228 764h95v100l-95 0z" />
<glyph unicode="&#204;" horiz-adv-x="220" d="M60 700v-700h100v700zM97 764h71l-44 105l-121 0z" />
<glyph unicode="&#205;" horiz-adv-x="220" d="M60 700v-700h100v700zM115 764l106 105h-121l-50 -105z" />
<glyph unicode="&#206;" horiz-adv-x="220" d="M60 700v-700h100v700zM110 822l60 -58h64l-57 105h-134l-57 -105l64 0z" />
<glyph unicode="&#207;" horiz-adv-x="220" d="M60 700v-700h100v700zM79 864h-95v-100h95zM141 764h95v100l-95 0z" />
<glyph unicode="&#208;" horiz-adv-x="458" d="M63 700v-311h-53v-70h53v-319h149q15 0 32.5 2q17.5 2 36 7.5q18.5 5.5 37 16.5q18.5 11 35.5 29q30 33 37.5 70q7.5 37 7.5 73v309q0 11 -1.5 29.5q-1.5 18.5 -6.5 39.5q-5 21 -16 42.5q-11 21.5 -30 39.5q-17 15 -35.5 23.5q-18.5 8.5 -38 12.5q-19.5 4 -38 5q-18.5 1 -34.5 1zM163 602h51q19 0 35 -3q16 -3 30 -20q12 -15 15.5 -32.5q3.5 -17.5 3.5 -32.5v-310q0 -17 -3.5 -41q-3.5 -24 -19.5 -41q-15 -16 -33 -20q-18 -4 -34 -4h-45v221h57v70l-57 0z" />
<glyph unicode="&#209;" horiz-adv-x="487" d="M60 700v-700h100v440l167 -440h100v700h-100v-440l-167 440zM120 761h55q0 13 6 22q3 4 8 7.5q5 3.5 13 3.5q7 0 13.5 -2q6.5 -2 18.5 -7l14 -5q13 -5 24 -7.5q11 -2.5 22 -2.5q39 0 59 33q8 14 10.5 30q2.5 16 2.5 27v3h-55q2 -13 -6 -23q-8 -10 -22 -10q-8 0 -16.5 3q-8.5 3 -14.5 5l-16 6q-16 6 -26 8q-10 2 -17 2q-14 0 -30 -6q-16 -6 -28 -26q-8 -14 -11.5 -30q-3.5 -16 -3.5 -26z" />
<glyph unicode="&#210;" horiz-adv-x="462" d="M56 184q0 -40 8 -77.5q8 -37.5 44 -71.5q23 -21 53.5 -33q30.5 -12 69.5 -12q39 0 69.5 12q30.5 12 53.5 33q36 34 44 71.5q8 37.5 8 77.5v332q0 40 -8 77.5q-8 37.5 -44 71.5q-23 21 -53.5 33q-30.5 12 -69.5 12q-39 0 -69.5 -12q-30.5 -12 -53.5 -33q-36 -34 -44 -71.5q-8 -37.5 -8 -77.5zM306 169q0 -16 -3.5 -31.5q-3.5 -15.5 -17.5 -29.5q-8 -8 -21.5 -14q-13.5 -6 -32.5 -6q-19 0 -32.5 6q-13.5 6 -21.5 14q-14 14 -17.5 29.5q-3.5 15.5 -3.5 31.5v362q0 16 3.5 31.5q3.5 15.5 17.5 29.5q8 8 21.5 14q13.5 6 32.5 6q19 0 32.5 -6q13.5 -6 21.5 -14q14 -14 17.5 -29.5q3.5 -15.5 3.5 -31.5zM217 764h71l-44 105l-121 0z" />
<glyph unicode="&#211;" horiz-adv-x="462" d="M56 184q0 -40 8 -77.5q8 -37.5 44 -71.5q23 -21 53.5 -33q30.5 -12 69.5 -12q39 0 69.5 12q30.5 12 53.5 33q36 34 44 71.5q8 37.5 8 77.5v332q0 40 -8 77.5q-8 37.5 -44 71.5q-23 21 -53.5 33q-30.5 12 -69.5 12q-39 0 -69.5 -12q-30.5 -12 -53.5 -33q-36 -34 -44 -71.5q-8 -37.5 -8 -77.5zM306 169q0 -16 -3.5 -31.5q-3.5 -15.5 -17.5 -29.5q-8 -8 -21.5 -14q-13.5 -6 -32.5 -6q-19 0 -32.5 6q-13.5 6 -21.5 14q-14 14 -17.5 29.5q-3.5 15.5 -3.5 31.5v362q0 16 3.5 31.5q3.5 15.5 17.5 29.5q8 8 21.5 14q13.5 6 32.5 6q19 0 32.5 -6q13.5 -6 21.5 -14q14 -14 17.5 -29.5q3.5 -15.5 3.5 -31.5zM235 764l106 105h-121l-50 -105z" />
<glyph unicode="&#212;" horiz-adv-x="462" d="M56 184q0 -40 8 -77.5q8 -37.5 44 -71.5q23 -21 53.5 -33q30.5 -12 69.5 -12q39 0 69.5 12q30.5 12 53.5 33q36 34 44 71.5q8 37.5 8 77.5v332q0 40 -8 77.5q-8 37.5 -44 71.5q-23 21 -53.5 33q-30.5 12 -69.5 12q-39 0 -69.5 -12q-30.5 -12 -53.5 -33q-36 -34 -44 -71.5q-8 -37.5 -8 -77.5zM306 169q0 -16 -3.5 -31.5q-3.5 -15.5 -17.5 -29.5q-8 -8 -21.5 -14q-13.5 -6 -32.5 -6q-19 0 -32.5 6q-13.5 6 -21.5 14q-14 14 -17.5 29.5q-3.5 15.5 -3.5 31.5v362q0 16 3.5 31.5q3.5 15.5 17.5 29.5q8 8 21.5 14q13.5 6 32.5 6q19 0 32.5 -6q13.5 -6 21.5 -14q14 -14 17.5 -29.5q3.5 -15.5 3.5 -31.5zM231 822l60 -58h64l-57 105h-134l-57 -105l64 0z" />
<glyph unicode="&#213;" horiz-adv-x="462" d="M56 184q0 -40 8 -77.5q8 -37.5 44 -71.5q23 -21 53.5 -33q30.5 -12 69.5 -12q39 0 69.5 12q30.5 12 53.5 33q36 34 44 71.5q8 37.5 8 77.5v332q0 40 -8 77.5q-8 37.5 -44 71.5q-23 21 -53.5 33q-30.5 12 -69.5 12q-39 0 -69.5 -12q-30.5 -12 -53.5 -33q-36 -34 -44 -71.5q-8 -37.5 -8 -77.5zM306 169q0 -16 -3.5 -31.5q-3.5 -15.5 -17.5 -29.5q-8 -8 -21.5 -14q-13.5 -6 -32.5 -6q-19 0 -32.5 6q-13.5 6 -21.5 14q-14 14 -17.5 29.5q-3.5 15.5 -3.5 31.5v362q0 16 3.5 31.5q3.5 15.5 17.5 29.5q8 8 21.5 14q13.5 6 32.5 6q19 0 32.5 -6q13.5 -6 21.5 -14q14 -14 17.5 -29.5q3.5 -15.5 3.5 -31.5zM108 761h55q0 13 6 22q3 4 8 7.5q5 3.5 13 3.5q7 0 13.5 -2q6.5 -2 18.5 -7l14 -5q13 -5 24 -7.5q11 -2.5 22 -2.5q39 0 59 33q8 14 10.5 30q2.5 16 2.5 27v3h-55q2 -13 -6 -23q-8 -10 -22 -10q-8 0 -16.5 3q-8.5 3 -14.5 5l-16 6q-16 6 -26 8q-10 2 -17 2q-14 0 -30 -6q-16 -6 -28 -26q-8 -14 -11.5 -30q-3.5 -16 -3.5 -26z" />
<glyph unicode="&#214;" horiz-adv-x="462" d="M56 184q0 -40 8 -77.5q8 -37.5 44 -71.5q23 -21 53.5 -33q30.5 -12 69.5 -12q39 0 69.5 12q30.5 12 53.5 33q36 34 44 71.5q8 37.5 8 77.5v332q0 40 -8 77.5q-8 37.5 -44 71.5q-23 21 -53.5 33q-30.5 12 -69.5 12q-39 0 -69.5 -12q-30.5 -12 -53.5 -33q-36 -34 -44 -71.5q-8 -37.5 -8 -77.5zM306 169q0 -16 -3.5 -31.5q-3.5 -15.5 -17.5 -29.5q-8 -8 -21.5 -14q-13.5 -6 -32.5 -6q-19 0 -32.5 6q-13.5 6 -21.5 14q-14 14 -17.5 29.5q-3.5 15.5 -3.5 31.5v362q0 16 3.5 31.5q3.5 15.5 17.5 29.5q8 8 21.5 14q13.5 6 32.5 6q19 0 32.5 -6q13.5 -6 21.5 -14q14 -14 17.5 -29.5q3.5 -15.5 3.5 -31.5zM200 864h-95v-100h95zM262 764h95v100l-95 0z" />
<glyph unicode="&#215;" horiz-adv-x="478" d="M50 159l57 -57l132 132l132 -132l57 57l-132 132l132 132l-57 57l-132 -132l-132 132l-57 -57l132 -132z" />
<glyph unicode="&#216;" horiz-adv-x="468" d="M59 184q0 -39 5 -64q5 -25 19 -51l-33 -79h65l13 31q17 -11 42.5 -21q25.5 -10 63.5 -10q39 0 69.5 12q30.5 12 53.5 33q36 34 44 71.5q8 37.5 8 77.5v332q0 39 -5 64q-5 25 -19 51l33 79h-65l-13 -31q-17 11 -42.5 21q-25.5 10 -63.5 10q-39 0 -69.5 -12q-30.5 -12 -53.5 -33q-36 -34 -44 -71.5q-8 -37.5 -8 -77.5zM309 169q0 -16 -3.5 -31.5q-3.5 -15.5 -17.5 -29.5q-8 -8 -21.5 -14q-13.5 -6 -32.5 -6q-43 0 -64 32l139 331zM159 249v282q0 16 3.5 31.5q3.5 15.5 17.5 29.5q8 8 21.5 14q13.5 6 32.5 6q43 0 64 -32z" />
<glyph unicode="&#217;" horiz-adv-x="454" d="M60 700v-516q0 -58 15.5 -95.5q15.5 -37.5 40 -59.5q24.5 -22 54 -30.5q29.5 -8.5 57.5 -8.5q28 0 57.5 8.5q29.5 8.5 54 30.5q24.5 22 40 59.5q15.5 37.5 15.5 95.5v516h-100v-531q0 -36 -17 -58.5q-17 -22.5 -50 -22.5q-33 0 -50 22.5q-17 22.5 -17 58.5v531zM213 764h71l-44 105l-121 0z" />
<glyph unicode="&#218;" horiz-adv-x="454" d="M60 700v-516q0 -58 15.5 -95.5q15.5 -37.5 40 -59.5q24.5 -22 54 -30.5q29.5 -8.5 57.5 -8.5q28 0 57.5 8.5q29.5 8.5 54 30.5q24.5 22 40 59.5q15.5 37.5 15.5 95.5v516h-100v-531q0 -36 -17 -58.5q-17 -22.5 -50 -22.5q-33 0 -50 22.5q-17 22.5 -17 58.5v531zM231 764l106 105h-121l-50 -105z" />
<glyph unicode="&#219;" horiz-adv-x="454" d="M60 700v-516q0 -58 15.5 -95.5q15.5 -37.5 40 -59.5q24.5 -22 54 -30.5q29.5 -8.5 57.5 -8.5q28 0 57.5 8.5q29.5 8.5 54 30.5q24.5 22 40 59.5q15.5 37.5 15.5 95.5v516h-100v-531q0 -36 -17 -58.5q-17 -22.5 -50 -22.5q-33 0 -50 22.5q-17 22.5 -17 58.5v531zM227 822l60 -58h64l-57 105h-134l-57 -105l64 0z" />
<glyph unicode="&#220;" horiz-adv-x="454" d="M60 700v-516q0 -58 15.5 -95.5q15.5 -37.5 40 -59.5q24.5 -22 54 -30.5q29.5 -8.5 57.5 -8.5q28 0 57.5 8.5q29.5 8.5 54 30.5q24.5 22 40 59.5q15.5 37.5 15.5 95.5v516h-100v-531q0 -36 -17 -58.5q-17 -22.5 -50 -22.5q-33 0 -50 22.5q-17 22.5 -17 58.5v531zM196 864h-95v-100h95zM258 764h95v100l-95 0z" />
<glyph unicode="&#221;" horiz-adv-x="414" d="M404 700h-106l-85 -278h-6l-87 278h-110l147 -402v-298h100v295zM211 764l106 105h-121l-50 -105z" />
<glyph unicode="&#222;" horiz-adv-x="450" d="M160 710h-100v-710h100v145h69q11 0 27.5 1.5q16.5 1.5 35.5 7q19 5.5 38.5 16.5q19.5 11 36.5 31q15 16 23.5 35q8.5 19 13 38q4.5 19 5.5 36.5q1 17.5 1 32.5v21q0 39 -8.5 82q-8.5 43 -42.5 78q-17 16 -34.5 25.5q-17.5 9.5 -35.5 14q-18 4.5 -36 5.5q-18 1 -34 1h-59zM160 480h45q21 0 40.5 -1.5q19.5 -1.5 37.5 -17.5q21 -18 24 -40q3 -22 3 -41v-46q0 -20 -1.5 -36.5q-1.5 -16.5 -17.5 -35.5q-17 -20 -34 -23.5q-17 -3.5 -33 -3.5l-64 0z" />
<glyph unicode="&#223;" horiz-adv-x="416" d="M54 0h100v547q0 11 2.5 23q2.5 12 12.5 24q8 8 16.5 13q8.5 5 20.5 5q14 0 24 -4.5q10 -4.5 16 -10.5q11 -11 13.5 -22.5q2.5 -11.5 2.5 -19.5v-59q0 -13 -3 -26q-3 -13 -10 -21q-8 -9 -18 -11.5q-10 -2.5 -18 -2.5h-15v-89h16q9 0 18.5 -2q9.5 -2 17.5 -12q4 -5 6.5 -12.5q2.5 -7.5 3.5 -15q1 -7.5 1.5 -13.5q0.5 -6 0.5 -9v-124q0 -7 -1.5 -17.5q-1.5 -10.5 -6.5 -20q-5 -9.5 -16 -16q-11 -6.5 -29 -6.5h-21v-98h23q9 0 22 1q13 1 28 5q15 4 30.5 12.5q15.5 8.5 29.5 22.5q29 29 35 61.5q6 32.5 6 74.5v87q0 19 -3.5 41.5q-3.5 22.5 -11.5 38.5q-16 31 -51 46q36 11 52 40q10 17 12 35.5q2 18.5 2 27.5v71q0 42 -16 70.5q-16 28.5 -35 43.5q-21 17 -50 24.5q-29 7.5 -56 7.5q-62 0 -102 -34q-17 -14 -26.5 -29q-9.5 -15 -14.5 -30q-5 -15 -6.5 -29q-1.5 -14 -1.5 -26z" />
<glyph unicode="&#224;" horiz-adv-x="405" d="M251 0h100v347q0 26 -7 58q-7 32 -34 59q-19 18 -46 29q-27 11 -61 11q-35 0 -64 -11q-29 -11 -48 -30q-17 -17 -29.5 -45q-12.5 -28 -11.5 -62l95 0q1 19 13 32q8 10 18.5 14q10.5 4 21.5 4q25 0 40 -16q9 -10 11 -20.5q2 -10.5 2 -21.5v-52q-23 2 -37.5 2.5q-14.5 0.5 -19.5 0.5q-11 0 -26 -1q-15 -1 -31.5 -5.5q-16.5 -4.5 -32.5 -13q-16 -8.5 -28 -23.5q-11 -13 -17 -29q-6 -16 -9 -32.5q-3 -16.5 -4 -33q-1 -16.5 -1 -29.5q0 -30 6.5 -61q6.5 -31 29.5 -53q19 -17 40 -21.5q21 -4.5 36 -4.5q16 0 30 4q14 4 28 15q11 8 20 19q9 11 14 19l2 0zM251 146q0 -33 -16.5 -48.5q-16.5 -15.5 -39.5 -15.5q-26 0 -40 23q-6 10 -8 20q-2 10 -2 21q0 12 2.5 26.5q2.5 14.5 12.5 25.5q12 14 28 17.5q16 3.5 28 3.5q17 0 35 -3zM196 578h57l-44 122l-107 0z" />
<glyph unicode="&#225;" horiz-adv-x="405" d="M251 0h100v347q0 26 -7 58q-7 32 -34 59q-19 18 -46 29q-27 11 -61 11q-35 0 -64 -11q-29 -11 -48 -30q-17 -17 -29.5 -45q-12.5 -28 -11.5 -62l95 0q1 19 13 32q8 10 18.5 14q10.5 4 21.5 4q25 0 40 -16q9 -10 11 -20.5q2 -10.5 2 -21.5v-52q-23 2 -37.5 2.5q-14.5 0.5 -19.5 0.5q-11 0 -26 -1q-15 -1 -31.5 -5.5q-16.5 -4.5 -32.5 -13q-16 -8.5 -28 -23.5q-11 -13 -17 -29q-6 -16 -9 -32.5q-3 -16.5 -4 -33q-1 -16.5 -1 -29.5q0 -30 6.5 -61q6.5 -31 29.5 -53q19 -17 40 -21.5q21 -4.5 36 -4.5q16 0 30 4q14 4 28 15q11 8 20 19q9 11 14 19l2 0zM251 146q0 -33 -16.5 -48.5q-16.5 -15.5 -39.5 -15.5q-26 0 -40 23q-6 10 -8 20q-2 10 -2 21q0 12 2.5 26.5q2.5 14.5 12.5 25.5q12 14 28 17.5q16 3.5 28 3.5q17 0 35 -3zM209 578l94 122h-107l-44 -122z" />
<glyph unicode="&#226;" horiz-adv-x="405" d="M251 0h100v347q0 26 -7 58q-7 32 -34 59q-19 18 -46 29q-27 11 -61 11q-35 0 -64 -11q-29 -11 -48 -30q-17 -17 -29.5 -45q-12.5 -28 -11.5 -62l95 0q1 19 13 32q8 10 18.5 14q10.5 4 21.5 4q25 0 40 -16q9 -10 11 -20.5q2 -10.5 2 -21.5v-52q-23 2 -37.5 2.5q-14.5 0.5 -19.5 0.5q-11 0 -26 -1q-15 -1 -31.5 -5.5q-16.5 -4.5 -32.5 -13q-16 -8.5 -28 -23.5q-11 -13 -17 -29q-6 -16 -9 -32.5q-3 -16.5 -4 -33q-1 -16.5 -1 -29.5q0 -30 6.5 -61q6.5 -31 29.5 -53q19 -17 40 -21.5q21 -4.5 36 -4.5q16 0 30 4q14 4 28 15q11 8 20 19q9 11 14 19l2 0zM251 146q0 -33 -16.5 -48.5q-16.5 -15.5 -39.5 -15.5q-26 0 -40 23q-6 10 -8 20q-2 10 -2 21q0 12 2.5 26.5q2.5 14.5 12.5 25.5q12 14 28 17.5q16 3.5 28 3.5q17 0 35 -3zM209 645l53 -67h57l-51 122h-118l-51 -122l57 0z" />
<glyph unicode="&#227;" horiz-adv-x="405" d="M251 0h100v347q0 26 -7 58q-7 32 -34 59q-19 18 -46 29q-27 11 -61 11q-35 0 -64 -11q-29 -11 -48 -30q-17 -17 -29.5 -45q-12.5 -28 -11.5 -62l95 0q1 19 13 32q8 10 18.5 14q10.5 4 21.5 4q25 0 40 -16q9 -10 11 -20.5q2 -10.5 2 -21.5v-52q-23 2 -37.5 2.5q-14.5 0.5 -19.5 0.5q-11 0 -26 -1q-15 -1 -31.5 -5.5q-16.5 -4.5 -32.5 -13q-16 -8.5 -28 -23.5q-11 -13 -17 -29q-6 -16 -9 -32.5q-3 -16.5 -4 -33q-1 -16.5 -1 -29.5q0 -30 6.5 -61q6.5 -31 29.5 -53q19 -17 40 -21.5q21 -4.5 36 -4.5q16 0 30 4q14 4 28 15q11 8 20 19q9 11 14 19l2 0zM251 146q0 -33 -16.5 -48.5q-16.5 -15.5 -39.5 -15.5q-26 0 -40 23q-6 10 -8 20q-2 10 -2 21q0 12 2.5 26.5q2.5 14.5 12.5 25.5q12 14 28 17.5q16 3.5 28 3.5q17 0 35 -3zM87 578h55q0 15 6 26q8 12 21 12q8 0 15.5 -3q7.5 -3 16.5 -7l14 -6q7 -3 20 -7.5q13 -4.5 27 -4.5q16 0 32.5 9q16.5 9 27.5 35q7 17 9 34q2 17 2 27v3h-55q0 -6 -1 -13q-1 -7 -5 -13q-8 -12 -22 -12q-8 0 -14 2.5q-6 2.5 -17 7.5l-14 6q-17 7 -27 9.5q-10 2.5 -18 2.5q-17 0 -32 -8.5q-15 -8.5 -26 -28.5q-9 -17 -12 -35.5q-3 -18.5 -3 -29.5z" />
<glyph unicode="&#228;" horiz-adv-x="405" d="M251 0h100v347q0 26 -7 58q-7 32 -34 59q-19 18 -46 29q-27 11 -61 11q-35 0 -64 -11q-29 -11 -48 -30q-17 -17 -29.5 -45q-12.5 -28 -11.5 -62l95 0q1 19 13 32q8 10 18.5 14q10.5 4 21.5 4q25 0 40 -16q9 -10 11 -20.5q2 -10.5 2 -21.5v-52q-23 2 -37.5 2.5q-14.5 0.5 -19.5 0.5q-11 0 -26 -1q-15 -1 -31.5 -5.5q-16.5 -4.5 -32.5 -13q-16 -8.5 -28 -23.5q-11 -13 -17 -29q-6 -16 -9 -32.5q-3 -16.5 -4 -33q-1 -16.5 -1 -29.5q0 -30 6.5 -61q6.5 -31 29.5 -53q19 -17 40 -21.5q21 -4.5 36 -4.5q16 0 30 4q14 4 28 15q11 8 20 19q9 11 14 19l2 0zM251 146q0 -33 -16.5 -48.5q-16.5 -15.5 -39.5 -15.5q-26 0 -40 23q-6 10 -8 20q-2 10 -2 21q0 12 2.5 26.5q2.5 14.5 12.5 25.5q12 14 28 17.5q16 3.5 28 3.5q17 0 35 -3zM176 683h-95v-95h95zM238 588h95v95l-95 0z" />
<glyph unicode="&#229;" horiz-adv-x="405" d="M251 0h100v347q0 26 -7 58q-7 32 -34 59q-19 18 -46 29q-27 11 -61 11q-35 0 -64 -11q-29 -11 -48 -30q-17 -17 -29.5 -45q-12.5 -28 -11.5 -62l95 0q1 19 13 32q8 10 18.5 14q10.5 4 21.5 4q25 0 40 -16q9 -10 11 -20.5q2 -10.5 2 -21.5v-52q-23 2 -37.5 2.5q-14.5 0.5 -19.5 0.5q-11 0 -26 -1q-15 -1 -31.5 -5.5q-16.5 -4.5 -32.5 -13q-16 -8.5 -28 -23.5q-11 -13 -17 -29q-6 -16 -9 -32.5q-3 -16.5 -4 -33q-1 -16.5 -1 -29.5q0 -30 6.5 -61q6.5 -31 29.5 -53q19 -17 40 -21.5q21 -4.5 36 -4.5q16 0 30 4q14 4 28 15q11 8 20 19q9 11 14 19l2 0zM251 146q0 -33 -16.5 -48.5q-16.5 -15.5 -39.5 -15.5q-26 0 -40 23q-6 10 -8 20q-2 10 -2 21q0 12 2.5 26.5q2.5 14.5 12.5 25.5q12 14 28 17.5q16 3.5 28 3.5q17 0 35 -3zM127 641q0 -33 23.5 -56.5q23.5 -23.5 56.5 -23.5q33 0 56.5 23.5q23.5 23.5 23.5 56.5q0 33 -23.5 56.5q-23.5 23.5 -56.5 23.5q-33 0 -56.5 -23.5q-23.5 -23.5 -23.5 -56.5zt0 0zM177 641q0 13 8.5 21.5q8.5 8.5 21.5 8.5q13 0 21.5 -8.5q8.5 -8.5 8.5 -21.5q0 -13 -8.5 -21.5q-8.5 -8.5 -21.5 -8.5q-13 0 -21.5 8.5t-8.5 21.5z" />
<glyph unicode="&#230;" horiz-adv-x="598" d="M145 356q2 14 6.5 22q4.5 8 6.5 10q8 8 18.5 13q10.5 5 21.5 5q24 0 40 -16q11 -12 12 -25q1 -13 1 -29v-40q-23 2 -37.5 2.5q-14.5 0.5 -19.5 0.5q-11 0 -26 -1q-15 -1 -31.5 -5.5q-16.5 -4.5 -32.5 -13q-16 -8.5 -28 -23.5q-11 -13 -17 -29q-6 -16 -9 -32.5q-3 -16.5 -4 -33q-1 -16.5 -1 -29.5q0 -30 6.5 -61q6.5 -31 29.5 -53q19 -17 40 -21.5q21 -4.5 36 -4.5q23 0 45.5 5.5q22.5 5.5 39.5 16.5q11 8 21 17.5q10 9.5 17 18.5q10 -12 19 -19.5q9 -7.5 14 -11.5q14 -10 35.5 -18.5q21.5 -8.5 53.5 -8.5q26 0 50 7q24 7 43 21q18 13 29 28.5q11 15.5 17 31.5q6 16 8 31.5q2 15.5 2 29.5v4h-100q0 -19 -9 -34q-14 -21 -40 -21q-26 0 -38 14q-9 9 -11 20.5q-2 11.5 -2 22.5v64h202v130q0 15 -1.5 31q-1.5 16 -7 32.5q-5.5 16.5 -15.5 33q-10 16.5 -26 30.5q-19 17 -45.5 26.5q-26.5 9.5 -58.5 9.5q-34 0 -57 -9.5q-23 -9.5 -40 -24.5q-20 17 -43.5 25.5q-23.5 8.5 -55.5 8.5q-42 0 -69 -13q-27 -13 -42 -28q-16 -15 -29.5 -42q-13.5 -27 -12.5 -65zM251 146q0 -10 -2.5 -21.5q-2.5 -11.5 -11.5 -22.5q-16 -20 -42 -20q-26 0 -40 23q-6 10 -8 20q-2 10 -2 21q0 12 2.5 26.5q2.5 14.5 12.5 25.5q12 14 28 17.5q16 3.5 28 3.5q9 0 20 -1q11 -1 15 -1zM351 288v61q0 10 2 20.5q2 10.5 10 19.5q14 17 39 17q12 0 21.5 -4q9.5 -4 15.5 -10q9 -9 11.5 -19q2.5 -10 2.5 -20l0 -65z" />
<glyph unicode="&#231;" horiz-adv-x="384" d="M354 346v3q0 29 -10 60q-10 31 -30 52q-19 20 -49 31.5q-30 11.5 -66 11.5q-37 0 -62 -11.5q-25 -11.5 -41 -25.5q-16 -14 -25 -30.5q-9 -16.5 -13.5 -33.5q-4.5 -17 -6 -33.5q-1.5 -16.5 -1.5 -31.5v-171q0 -16 0.5 -33q0.5 -17 4 -34q3.5 -17 11.5 -33.5q8 -16.5 23 -31.5q18 -19 43.5 -29.5q25.5 -10.5 51.5 -12.5l-5 -71q9 2 20 1.5q11 -0.5 19 -5.5q9 -6 9 -18q0 -10 -7 -17q-4 -4 -10 -5.5q-6 -1.5 -12 -1.5q-8 0 -18 4q-3 2 -6 3.5q-3 1.5 -6 4.5l-37 -33q29 -33 77 -33q17 0 32.5 4.5q15.5 4.5 28.5 15.5q8 8 16.5 21.5q8.5 13.5 8.5 34.5q0 31 -22 49q-10 8 -22.5 12q-12.5 4 -24.5 4l2 31q9 1 31.5 6.5q22.5 5.5 45.5 25.5q8 7 17 17.5q9 10.5 16.5 24q7.5 13.5 12 31.5q4.5 18 4.5 40v9h-100v-1q0 -7 -1.5 -18.5q-1.5 -11.5 -9.5 -21.5q-8 -11 -18.5 -14q-10.5 -3 -21.5 -3q-18 0 -27.5 6q-9.5 6 -13.5 11q-7 8 -9.5 19.5q-2.5 11.5 -2.5 22.5v192q0 13 2.5 25q2.5 12 11.5 23q9 11 19.5 14q10.5 3 19.5 3q15 0 25 -5.5q10 -5.5 15 -13.5q7 -10 9 -20q2 -10 2 -19l0 -2z" />
<glyph unicode="&#232;" horiz-adv-x="397" d="M150 211h202v130q0 15 -1.5 31q-1.5 16 -7 32.5q-5.5 16.5 -15.5 33q-10 16.5 -26 30.5q-19 17 -45.5 26.5q-26.5 9.5 -58.5 9.5q-32 0 -57 -9.5q-25 -9.5 -42 -24.5q-16 -14 -25.5 -29.5q-9.5 -15.5 -15 -31q-5.5 -15.5 -7 -31q-1.5 -15.5 -1.5 -28.5v-190q0 -11 0.5 -26q0.5 -15 4 -31q3.5 -16 11 -32q7.5 -16 20.5 -31q20 -22 50 -35q30 -13 65 -13q26 0 50 7q24 7 43 21q18 13 29 28.5q11 15.5 17 31.5q6 16 8 31.5q2 15.5 2 29.5v4h-100q0 -19 -9 -34q-14 -21 -40 -21q-26 0 -38 14q-9 9 -11 20.5q-2 11.5 -2 22.5zM150 288v61q0 10 2 20.5q2 10.5 10 19.5q14 17 39 17q23 0 37 -14q9 -9 11.5 -19q2.5 -10 2.5 -20v-65zM192 578h57l-44 122l-107 0z" />
<glyph unicode="&#233;" horiz-adv-x="397" d="M150 211h202v130q0 15 -1.5 31q-1.5 16 -7 32.5q-5.5 16.5 -15.5 33q-10 16.5 -26 30.5q-19 17 -45.5 26.5q-26.5 9.5 -58.5 9.5q-32 0 -57 -9.5q-25 -9.5 -42 -24.5q-16 -14 -25.5 -29.5q-9.5 -15.5 -15 -31q-5.5 -15.5 -7 -31q-1.5 -15.5 -1.5 -28.5v-190q0 -11 0.5 -26q0.5 -15 4 -31q3.5 -16 11 -32q7.5 -16 20.5 -31q20 -22 50 -35q30 -13 65 -13q26 0 50 7q24 7 43 21q18 13 29 28.5q11 15.5 17 31.5q6 16 8 31.5q2 15.5 2 29.5v4h-100q0 -19 -9 -34q-14 -21 -40 -21q-26 0 -38 14q-9 9 -11 20.5q-2 11.5 -2 22.5zM150 288v61q0 10 2 20.5q2 10.5 10 19.5q14 17 39 17q23 0 37 -14q9 -9 11.5 -19q2.5 -10 2.5 -20v-65zM205 578l94 122h-107l-44 -122z" />
<glyph unicode="&#234;" horiz-adv-x="397" d="M150 211h202v130q0 15 -1.5 31q-1.5 16 -7 32.5q-5.5 16.5 -15.5 33q-10 16.5 -26 30.5q-19 17 -45.5 26.5q-26.5 9.5 -58.5 9.5q-32 0 -57 -9.5q-25 -9.5 -42 -24.5q-16 -14 -25.5 -29.5q-9.5 -15.5 -15 -31q-5.5 -15.5 -7 -31q-1.5 -15.5 -1.5 -28.5v-190q0 -11 0.5 -26q0.5 -15 4 -31q3.5 -16 11 -32q7.5 -16 20.5 -31q20 -22 50 -35q30 -13 65 -13q26 0 50 7q24 7 43 21q18 13 29 28.5q11 15.5 17 31.5q6 16 8 31.5q2 15.5 2 29.5v4h-100q0 -19 -9 -34q-14 -21 -40 -21q-26 0 -38 14q-9 9 -11 20.5q-2 11.5 -2 22.5zM150 288v61q0 10 2 20.5q2 10.5 10 19.5q14 17 39 17q23 0 37 -14q9 -9 11.5 -19q2.5 -10 2.5 -20v-65zM210 645l53 -67h57l-51 122h-118l-51 -122l57 0z" />
<glyph unicode="&#235;" horiz-adv-x="397" d="M150 211h202v130q0 15 -1.5 31q-1.5 16 -7 32.5q-5.5 16.5 -15.5 33q-10 16.5 -26 30.5q-19 17 -45.5 26.5q-26.5 9.5 -58.5 9.5q-32 0 -57 -9.5q-25 -9.5 -42 -24.5q-16 -14 -25.5 -29.5q-9.5 -15.5 -15 -31q-5.5 -15.5 -7 -31q-1.5 -15.5 -1.5 -28.5v-190q0 -11 0.5 -26q0.5 -15 4 -31q3.5 -16 11 -32q7.5 -16 20.5 -31q20 -22 50 -35q30 -13 65 -13q26 0 50 7q24 7 43 21q18 13 29 28.5q11 15.5 17 31.5q6 16 8 31.5q2 15.5 2 29.5v4h-100q0 -19 -9 -34q-14 -21 -40 -21q-26 0 -38 14q-9 9 -11 20.5q-2 11.5 -2 22.5zM150 288v61q0 10 2 20.5q2 10.5 10 19.5q14 17 39 17q23 0 37 -14q9 -9 11.5 -19q2.5 -10 2.5 -20v-65zM172 683h-95v-95h95zM234 588h95v95l-95 0z" />
<glyph unicode="&#236;" horiz-adv-x="208" d="M54 0h100v496h-100zM98 578h57l-44 122l-107 0z" />
<glyph unicode="&#237;" horiz-adv-x="208" d="M54 0h100v496h-100zM111 578l94 122h-107l-44 -122z" />
<glyph unicode="&#238;" horiz-adv-x="208" d="M54 0h100v496h-100zM104 645l53 -67h57l-51 122h-118l-51 -122l57 0z" />
<glyph unicode="&#239;" horiz-adv-x="208" d="M54 0h100v496h-100zM73 683h-95v-95h95zM135 588h95v95l-95 0z" />
<glyph unicode="&#240;" horiz-adv-x="402" d="M352 431q0 36 -7.5 73.5q-7.5 37.5 -24.5 60.5q-6 8 -15 16.5q-9 8.5 -18.5 17q-9.5 8.5 -19 15q-9.5 6.5 -16.5 11.5l-135 85l-55 -63l147 -95q21 -14 38 -37q8 -11 11.5 -19.5q3.5 -8.5 3.5 -23.5v-15h-2q-13 18 -29 28q-12 8 -29 13.5q-17 5.5 -38 5.5q-29 0 -48 -8q-19 -8 -33 -21q-22 -21 -27 -43q-5 -22 -5 -41v-231q0 -15 1 -32q1 -17 6 -34.5q5 -17.5 15 -34.5q10 -17 27 -32q20 -17 47 -26q27 -9 55 -9q28 0 55 9q27 9 47 26q17 15 27 32q10 17 15 34.5q5 17.5 6 34.5q1 17 1 32zM150 342q0 33 15 50q14 14 36 14q22 0 36 -14q15 -17 15 -50v-188q0 -33 -15 -50q-6 -6 -15.5 -10q-9.5 -4 -20.5 -4q-22 0 -36 14q-15 17 -15 50z" />
<glyph unicode="&#241;" horiz-adv-x="410" d="M54 0h100v340q0 12 2.5 25q2.5 13 13.5 25q5 5 14.5 10.5q9.5 5.5 23.5 5.5q21 0 35 -15q9 -10 11 -20.5q2 -10.5 2 -19.5v-351h100v391q0 18 -4.5 41q-4.5 23 -24.5 43q-12 13 -30 21q-18 8 -44 8q-8 0 -19 -1.5q-11 -1.5 -24.5 -7q-13.5 -5.5 -28 -16q-14.5 -10.5 -27.5 -28.5l0 45h-100zM82 578h55q0 15 6 26q8 12 21 12q8 0 15.5 -3q7.5 -3 16.5 -7l14 -6q7 -3 20 -7.5q13 -4.5 27 -4.5q16 0 32.5 9q16.5 9 27.5 35q7 17 9 34q2 17 2 27v3h-55q0 -6 -1 -13q-1 -7 -5 -13q-8 -12 -22 -12q-8 0 -14 2.5q-6 2.5 -17 7.5l-14 6q-17 7 -27 9.5q-10 2.5 -18 2.5q-17 0 -32 -8.5q-15 -8.5 -26 -28.5q-9 -17 -12 -35.5q-3 -18.5 -3 -29.5z" />
<glyph unicode="&#242;" horiz-adv-x="402" d="M50 160q0 -15 1 -32q1 -17 6 -34.5q5 -17.5 15 -34.5q10 -17 27 -32q20 -17 47 -26q27 -9 55 -9q28 0 55 9q27 9 47 26q17 15 27 32q10 17 15 34.5q5 17.5 6 34.5q1 17 1 32v176q0 15 -1 32q-1 17 -6 34.5q-5 17.5 -15 34.5q-10 17 -27 32q-20 17 -47 26q-27 9 -55 9q-28 0 -55 -9q-27 -9 -47 -26q-17 -15 -27 -32q-10 -17 -15 -34.5q-5 -17.5 -6 -34.5q-1 -17 -1 -32zM252 154q0 -33 -15 -50q-6 -6 -15.5 -10q-9.5 -4 -20.5 -4q-22 0 -36 14q-15 17 -15 50v188q0 33 15 50q14 14 36 14q22 0 36 -14q15 -17 15 -50zM194 578h57l-44 122l-107 0z" />
<glyph unicode="&#243;" horiz-adv-x="402" d="M50 160q0 -15 1 -32q1 -17 6 -34.5q5 -17.5 15 -34.5q10 -17 27 -32q20 -17 47 -26q27 -9 55 -9q28 0 55 9q27 9 47 26q17 15 27 32q10 17 15 34.5q5 17.5 6 34.5q1 17 1 32v176q0 15 -1 32q-1 17 -6 34.5q-5 17.5 -15 34.5q-10 17 -27 32q-20 17 -47 26q-27 9 -55 9q-28 0 -55 -9q-27 -9 -47 -26q-17 -15 -27 -32q-10 -17 -15 -34.5q-5 -17.5 -6 -34.5q-1 -17 -1 -32zM252 154q0 -33 -15 -50q-6 -6 -15.5 -10q-9.5 -4 -20.5 -4q-22 0 -36 14q-15 17 -15 50v188q0 33 15 50q14 14 36 14q22 0 36 -14q15 -17 15 -50zM207 578l94 122h-107l-44 -122z" />
<glyph unicode="&#244;" horiz-adv-x="402" d="M50 160q0 -15 1 -32q1 -17 6 -34.5q5 -17.5 15 -34.5q10 -17 27 -32q20 -17 47 -26q27 -9 55 -9q28 0 55 9q27 9 47 26q17 15 27 32q10 17 15 34.5q5 17.5 6 34.5q1 17 1 32v176q0 15 -1 32q-1 17 -6 34.5q-5 17.5 -15 34.5q-10 17 -27 32q-20 17 -47 26q-27 9 -55 9q-28 0 -55 -9q-27 -9 -47 -26q-17 -15 -27 -32q-10 -17 -15 -34.5q-5 -17.5 -6 -34.5q-1 -17 -1 -32zM252 154q0 -33 -15 -50q-6 -6 -15.5 -10q-9.5 -4 -20.5 -4q-22 0 -36 14q-15 17 -15 50v188q0 33 15 50q14 14 36 14q22 0 36 -14q15 -17 15 -50zM201 645l53 -67h57l-51 122h-118l-51 -122l57 0z" />
<glyph unicode="&#245;" horiz-adv-x="402" d="M50 160q0 -15 1 -32q1 -17 6 -34.5q5 -17.5 15 -34.5q10 -17 27 -32q20 -17 47 -26q27 -9 55 -9q28 0 55 9q27 9 47 26q17 15 27 32q10 17 15 34.5q5 17.5 6 34.5q1 17 1 32v176q0 15 -1 32q-1 17 -6 34.5q-5 17.5 -15 34.5q-10 17 -27 32q-20 17 -47 26q-27 9 -55 9q-28 0 -55 -9q-27 -9 -47 -26q-17 -15 -27 -32q-10 -17 -15 -34.5q-5 -17.5 -6 -34.5q-1 -17 -1 -32zM252 154q0 -33 -15 -50q-6 -6 -15.5 -10q-9.5 -4 -20.5 -4q-22 0 -36 14q-15 17 -15 50v188q0 33 15 50q14 14 36 14q22 0 36 -14q15 -17 15 -50zM87 578h55q0 15 6 26q8 12 21 12q8 0 15.5 -3q7.5 -3 16.5 -7l14 -6q7 -3 20 -7.5q13 -4.5 27 -4.5q16 0 32.5 9q16.5 9 27.5 35q7 17 9 34q2 17 2 27v3h-55q0 -6 -1 -13q-1 -7 -5 -13q-8 -12 -22 -12q-8 0 -14 2.5q-6 2.5 -17 7.5l-14 6q-17 7 -27 9.5q-10 2.5 -18 2.5q-17 0 -32 -8.5q-15 -8.5 -26 -28.5q-9 -17 -12 -35.5q-3 -18.5 -3 -29.5z" />
<glyph unicode="&#246;" horiz-adv-x="402" d="M50 160q0 -15 1 -32q1 -17 6 -34.5q5 -17.5 15 -34.5q10 -17 27 -32q20 -17 47 -26q27 -9 55 -9q28 0 55 9q27 9 47 26q17 15 27 32q10 17 15 34.5q5 17.5 6 34.5q1 17 1 32v176q0 15 -1 32q-1 17 -6 34.5q-5 17.5 -15 34.5q-10 17 -27 32q-20 17 -47 26q-27 9 -55 9q-28 0 -55 -9q-27 -9 -47 -26q-17 -15 -27 -32q-10 -17 -15 -34.5q-5 -17.5 -6 -34.5q-1 -17 -1 -32zM252 154q0 -33 -15 -50q-6 -6 -15.5 -10q-9.5 -4 -20.5 -4q-22 0 -36 14q-15 17 -15 50v188q0 33 15 50q14 14 36 14q22 0 36 -14q15 -17 15 -50zM175 683h-95v-95h95zM237 588h95v95l-95 0z" />
<glyph unicode="&#247;" horiz-adv-x="494" d="M199 155q0 -20 14 -34q14 -14 34 -14q20 0 34 14q14 14 14 34q0 20 -14 34q-14 14 -34 14q-20 0 -34 -14q-14 -14 -14 -34zt0 0zM199 427q0 -20 14 -34q14 -14 34 -14q20 0 34 14q14 14 14 34q0 20 -14 34q-14 14 -34 14q-20 0 -34 -14q-14 -14 -14 -34zt0 0zM50 331v-80h394l0 80z" />
<glyph unicode="&#248;" horiz-adv-x="410" d="M54 160q0 -28 5 -59.5q5 -31.5 31 -60.5l-20 -48h60l6 15q12 -6 28.5 -10.5q16.5 -4.5 40.5 -4.5q33 0 59 10.5q26 10.5 43 24.5q17 15 27 32q10 17 15 34.5q5 17.5 6 34.5q1 17 1 32v176q0 28 -5 59.5q-5 31.5 -31 60.5l20 48h-60l-6 -15q-12 6 -28.5 10.5q-16.5 4.5 -40.5 4.5q-33 0 -59 -10.5q-26 -10.5 -43 -24.5q-17 -15 -27 -32q-10 -17 -15 -34.5q-5 -17.5 -6 -34.5q-1 -17 -1 -32zM256 154q0 -33 -15 -50q-6 -6 -15.5 -10q-9.5 -4 -20.5 -4q-11 0 -18.5 3.5q-7.5 3.5 -12.5 6.5l82 199zM154 197v145q0 33 15 50q14 14 36 14q11 0 18.5 -3.5q7.5 -3.5 12.5 -6.5z" />
<glyph unicode="&#249;" horiz-adv-x="410" d="M356 496h-100v-340q0 -10 -2.5 -23q-2.5 -13 -13.5 -25q-7 -8 -17.5 -13q-10.5 -5 -24.5 -5q-12 0 -19.5 4q-7.5 4 -12.5 9q-8 9 -10 20q-2 11 -2 22v351h-100v-391q0 -18 4 -38.5q4 -20.5 16 -37.5q9 -13 27.5 -25q18.5 -12 50.5 -12q39 0 69 21q14 11 23.5 23q9.5 12 11.5 14l0 -50h100zM198 578h57l-44 122l-107 0z" />
<glyph unicode="&#250;" horiz-adv-x="410" d="M356 496h-100v-340q0 -10 -2.5 -23q-2.5 -13 -13.5 -25q-7 -8 -17.5 -13q-10.5 -5 -24.5 -5q-12 0 -19.5 4q-7.5 4 -12.5 9q-8 9 -10 20q-2 11 -2 22v351h-100v-391q0 -18 4 -38.5q4 -20.5 16 -37.5q9 -13 27.5 -25q18.5 -12 50.5 -12q39 0 69 21q14 11 23.5 23q9.5 12 11.5 14l0 -50h100zM211 578l94 122h-107l-44 -122z" />
<glyph unicode="&#251;" horiz-adv-x="410" d="M356 496h-100v-340q0 -10 -2.5 -23q-2.5 -13 -13.5 -25q-7 -8 -17.5 -13q-10.5 -5 -24.5 -5q-12 0 -19.5 4q-7.5 4 -12.5 9q-8 9 -10 20q-2 11 -2 22v351h-100v-391q0 -18 4 -38.5q4 -20.5 16 -37.5q9 -13 27.5 -25q18.5 -12 50.5 -12q39 0 69 21q14 11 23.5 23q9.5 12 11.5 14l0 -50h100zM205 645l53 -67h57l-51 122h-118l-51 -122l57 0z" />
<glyph unicode="&#252;" horiz-adv-x="410" d="M356 496h-100v-340q0 -10 -2.5 -23q-2.5 -13 -13.5 -25q-7 -8 -17.5 -13q-10.5 -5 -24.5 -5q-12 0 -19.5 4q-7.5 4 -12.5 9q-8 9 -10 20q-2 11 -2 22v351h-100v-391q0 -18 4 -38.5q4 -20.5 16 -37.5q9 -13 27.5 -25q18.5 -12 50.5 -12q39 0 69 21q14 11 23.5 23q9.5 12 11.5 14l0 -50h100zM174 683h-95v-95h95zM236 588h95v95l-95 0z" />
<glyph unicode="&#253;" horiz-adv-x="372" d="M10 496l145 -473l-16 -65q-6 -24 -10.5 -34q-4.5 -10 -7.5 -14q-11 -14 -23.5 -17.5q-12.5 -3.5 -23.5 -3.5h-19l2 -93h26q23 0 50 4.5q27 4.5 50 26.5q22 22 31.5 53q9.5 31 14.5 53l136 563h-100l-62 -308h-4l-81 308zM192 578l94 122h-107l-44 -122z" />
<glyph unicode="&#254;" horiz-adv-x="406" d="M154 700h-100v-904h100v244q14 -18 33 -29q14 -8 29 -13.5q15 -5.5 37 -5.5q22 0 40.5 6.5q18.5 6.5 33.5 22.5q20 20 24.5 43q4.5 23 4.5 41v258q0 24 -3 52q-3 28 -20 51q-3 4 -9.5 10.5q-6.5 6.5 -16.5 12.5q-10 6 -24 10.5q-14 4.5 -33 4.5q-15 0 -31 -4q-16 -4 -30 -13q-10 -7 -19 -16q-9 -9 -15 -19l-1 0zM154 340q0 12 2.5 25q2.5 13 13.5 25q5 5 14.5 10.5q9.5 5.5 23.5 5.5q21 0 35 -15q10 -11 11.5 -21.5q1.5 -10.5 1.5 -23.5v-201q0 -9 -2 -19.5q-2 -10.5 -11 -20.5q-14 -15 -35 -15q-14 0 -23.5 5.5q-9.5 5.5 -14.5 10.5q-11 12 -13.5 25q-2.5 13 -2.5 25z" />
<glyph unicode="&#255;" horiz-adv-x="372" d="M10 496l145 -473l-16 -65q-6 -24 -10.5 -34q-4.5 -10 -7.5 -14q-11 -14 -23.5 -17.5q-12.5 -3.5 -23.5 -3.5h-19l2 -93h26q23 0 50 4.5q27 4.5 50 26.5q22 22 31.5 53q9.5 31 14.5 53l136 563h-100l-62 -308h-4l-81 308zM164 683h-95v-95h95zM226 588h95v95l-95 0z" />
<glyph unicode="&#256;" horiz-adv-x="429" d="M404 0l-153 700h-88l-153 -700h100l33 150h128l33 -150zM259 239h-106l52 266zM96 824v-60h224l0 60z" />
<glyph unicode="&#257;" horiz-adv-x="405" d="M251 0h100v347q0 26 -7 58q-7 32 -34 59q-19 18 -46 29q-27 11 -61 11q-35 0 -64 -11q-29 -11 -48 -30q-17 -17 -29.5 -45q-12.5 -28 -11.5 -62l95 0q1 19 13 32q8 10 18.5 14q10.5 4 21.5 4q25 0 40 -16q9 -10 11 -20.5q2 -10.5 2 -21.5v-52q-23 2 -37.5 2.5q-14.5 0.5 -19.5 0.5q-11 0 -26 -1q-15 -1 -31.5 -5.5q-16.5 -4.5 -32.5 -13q-16 -8.5 -28 -23.5q-11 -13 -17 -29q-6 -16 -9 -32.5q-3 -16.5 -4 -33q-1 -16.5 -1 -29.5q0 -30 6.5 -61q6.5 -31 29.5 -53q19 -17 40 -21.5q21 -4.5 36 -4.5q16 0 30 4q14 4 28 15q11 8 20 19q9 11 14 19l2 0zM251 146q0 -33 -16.5 -48.5q-16.5 -15.5 -39.5 -15.5q-26 0 -40 23q-6 10 -8 20q-2 10 -2 21q0 12 2.5 26.5q2.5 14.5 12.5 25.5q12 14 28 17.5q16 3.5 28 3.5q17 0 35 -3zM95 668v-70h224l0 70z" />
<glyph unicode="&#258;" horiz-adv-x="429" d="M404 0l-153 700h-88l-153 -700h100l33 150h128l33 -150zM259 239h-106l52 266zM321 869h-54v-3q0 -14 -6.5 -21.5q-6.5 -7.5 -10.5 -10.5q-10 -7 -24 -9.5q-14 -2.5 -25 -2.5q-11 0 -25 2.5q-14 2.5 -24 9.5q-4 3 -10.5 10.5q-6.5 7.5 -6.5 21.5v3h-54v-5q0 -39 19 -63q15 -19 42 -29q27 -10 59 -10q32 0 59 10q27 10 42 29q19 24 19 63z" />
<glyph unicode="&#259;" horiz-adv-x="405" d="M251 0h100v347q0 26 -7 58q-7 32 -34 59q-19 18 -46 29q-27 11 -61 11q-35 0 -64 -11q-29 -11 -48 -30q-17 -17 -29.5 -45q-12.5 -28 -11.5 -62l95 0q1 19 13 32q8 10 18.5 14q10.5 4 21.5 4q25 0 40 -16q9 -10 11 -20.5q2 -10.5 2 -21.5v-52q-23 2 -37.5 2.5q-14.5 0.5 -19.5 0.5q-11 0 -26 -1q-15 -1 -31.5 -5.5q-16.5 -4.5 -32.5 -13q-16 -8.5 -28 -23.5q-11 -13 -17 -29q-6 -16 -9 -32.5q-3 -16.5 -4 -33q-1 -16.5 -1 -29.5q0 -30 6.5 -61q6.5 -31 29.5 -53q19 -17 40 -21.5q21 -4.5 36 -4.5q16 0 30 4q14 4 28 15q11 8 20 19q9 11 14 19l2 0zM251 146q0 -33 -16.5 -48.5q-16.5 -15.5 -39.5 -15.5q-26 0 -40 23q-6 10 -8 20q-2 10 -2 21q0 12 2.5 26.5q2.5 14.5 12.5 25.5q12 14 28 17.5q16 3.5 28 3.5q17 0 35 -3zM330 700h-54v-3q0 -13 -5.5 -22.5q-5.5 -9.5 -11.5 -14.5q-11 -9 -24.5 -11.5q-13.5 -2.5 -24.5 -2.5q-11 0 -24.5 2.5q-13.5 2.5 -24.5 11.5q-6 5 -11.5 14.5q-5.5 9.5 -5.5 22.5v3h-54v-6q0 -17 4 -37q4 -20 15 -36q10 -15 33 -30q23 -15 68 -15q45 0 68 15q23 15 33 30q11 16 15 36q4 20 4 37z" />
<glyph unicode="&#260;" horiz-adv-x="429" d="M404 0l-153 700h-88l-153 -700h100l33 150h128l33 -150zM259 239h-106l52 266zM407 1h-53l-20 -13q-6 -4 -15 -10q-9 -6 -17 -14.5q-8 -8.5 -14 -19.5q-6 -11 -6 -26q0 -10 3.5 -22.5q3.5 -12.5 13 -23q9.5 -10.5 26 -18q16.5 -7.5 41.5 -7.5q11 0 32 5.5q21 5.5 43 30.5l-32 32q-5 -5 -13.5 -9q-8.5 -4 -20.5 -4q-17 0 -24.5 9q-7.5 9 -7.5 20q0 13 5.5 21q5.5 8 13.5 15q9 8 16.5 13q7.5 5 13.5 10z" />
<glyph unicode="&#261;" horiz-adv-x="405" d="M251 0h100v347q0 26 -7 58q-7 32 -34 59q-19 18 -46 29q-27 11 -61 11q-35 0 -64 -11q-29 -11 -48 -30q-17 -17 -29.5 -45q-12.5 -28 -11.5 -62l95 0q1 19 13 32q8 10 18.5 14q10.5 4 21.5 4q25 0 40 -16q9 -10 11 -20.5q2 -10.5 2 -21.5v-52q-23 2 -37.5 2.5q-14.5 0.5 -19.5 0.5q-11 0 -26 -1q-15 -1 -31.5 -5.5q-16.5 -4.5 -32.5 -13q-16 -8.5 -28 -23.5q-11 -13 -17 -29q-6 -16 -9 -32.5q-3 -16.5 -4 -33q-1 -16.5 -1 -29.5q0 -30 6.5 -61q6.5 -31 29.5 -53q19 -17 40 -21.5q21 -4.5 36 -4.5q16 0 30 4q14 4 28 15q11 8 20 19q9 11 14 19l2 0zM251 146q0 -33 -16.5 -48.5q-16.5 -15.5 -39.5 -15.5q-26 0 -40 23q-6 10 -8 20q-2 10 -2 21q0 12 2.5 26.5q2.5 14.5 12.5 25.5q12 14 28 17.5q16 3.5 28 3.5q17 0 35 -3zM355 1h-53l-20 -13q-6 -4 -15 -10q-9 -6 -17 -14.5q-8 -8.5 -14 -19.5q-6 -11 -6 -26q0 -10 3.5 -22.5q3.5 -12.5 13 -23q9.5 -10.5 26 -18q16.5 -7.5 41.5 -7.5q11 0 32 5.5q21 5.5 43 30.5l-32 32q-5 -5 -13.5 -9q-8.5 -4 -20.5 -4q-17 0 -24.5 9q-7.5 9 -7.5 20q0 13 5.5 21q5.5 8 13.5 15q9 8 16.5 13q7.5 5 13.5 10z" />
<glyph unicode="&#262;" horiz-adv-x="434" d="M289 501h97v48q0 37 -13 67q-13 30 -32 49q-23 22 -56 33.5q-33 11.5 -65 11.5q-28 0 -59.5 -10q-31.5 -10 -54.5 -31q-34 -29 -42.5 -66q-8.5 -37 -8.5 -71v-363q0 -27 4 -60.5q4 -33.5 31 -65.5q17 -20 46.5 -36.5q29.5 -16.5 79.5 -16.5q52 0 83.5 15q31.5 15 47.5 32q14 14 28 45q14 31 14 83v29h-100v-25q0 -26 -5 -39q-5 -13 -9 -18q-9 -12 -24 -18q-15 -6 -32 -6q-21 0 -33.5 8.5q-12.5 8.5 -17.5 16.5q-10 14 -11.5 29.5q-1.5 15.5 -1.5 32.5v345q0 18 2.5 36q2.5 18 14.5 33q8 9 20 16q12 7 32 7q24 0 36 -10q12 -10 16 -15q7 -10 10 -22.5q3 -12.5 3 -23.5zM221 764l106 105h-121l-50 -105z" />
<glyph unicode="&#263;" horiz-adv-x="384" d="M354 346v3q0 29 -10 60q-10 31 -30 52q-19 20 -49 31.5q-30 11.5 -66 11.5q-37 0 -62 -11.5q-25 -11.5 -41 -25.5q-16 -14 -25 -30.5q-9 -16.5 -13.5 -33.5q-4.5 -17 -6 -33.5q-1.5 -16.5 -1.5 -31.5v-171q0 -16 0.5 -33q0.5 -17 4 -34q3.5 -17 11.5 -33.5q8 -16.5 23 -31.5q20 -21 50.5 -32q30.5 -11 64.5 -11q34 0 58.5 10q24.5 10 41.5 24q8 7 17 17.5q9 10.5 16.5 24q7.5 13.5 12 31.5q4.5 18 4.5 40v9h-100v-1q0 -7 -1.5 -18.5q-1.5 -11.5 -9.5 -21.5q-8 -11 -18.5 -14q-10.5 -3 -21.5 -3q-18 0 -27.5 6q-9.5 6 -13.5 11q-7 8 -9.5 19.5q-2.5 11.5 -2.5 22.5v192q0 13 2.5 25q2.5 12 11.5 23q9 11 19.5 14q10.5 3 19.5 3q15 0 25 -5.5q10 -5.5 15 -13.5q7 -10 9 -20q2 -10 2 -19v-2zM218 578l94 122h-107l-44 -122z" />
<glyph unicode="&#264;" horiz-adv-x="434" d="M289 501h97v48q0 37 -13 67q-13 30 -32 49q-23 22 -56 33.5q-33 11.5 -65 11.5q-28 0 -59.5 -10q-31.5 -10 -54.5 -31q-34 -29 -42.5 -66q-8.5 -37 -8.5 -71v-363q0 -27 4 -60.5q4 -33.5 31 -65.5q17 -20 46.5 -36.5q29.5 -16.5 79.5 -16.5q52 0 83.5 15q31.5 15 47.5 32q14 14 28 45q14 31 14 83v29h-100v-25q0 -26 -5 -39q-5 -13 -9 -18q-9 -12 -24 -18q-15 -6 -32 -6q-21 0 -33.5 8.5q-12.5 8.5 -17.5 16.5q-10 14 -11.5 29.5q-1.5 15.5 -1.5 32.5v345q0 18 2.5 36q2.5 18 14.5 33q8 9 20 16q12 7 32 7q24 0 36 -10q12 -10 16 -15q7 -10 10 -22.5q3 -12.5 3 -23.5zM217 822l60 -58h64l-57 105h-134l-57 -105l64 0z" />
<glyph unicode="&#265;" horiz-adv-x="384" d="M354 346v3q0 29 -10 60q-10 31 -30 52q-19 20 -49 31.5q-30 11.5 -66 11.5q-37 0 -62 -11.5q-25 -11.5 -41 -25.5q-16 -14 -25 -30.5q-9 -16.5 -13.5 -33.5q-4.5 -17 -6 -33.5q-1.5 -16.5 -1.5 -31.5v-171q0 -16 0.5 -33q0.5 -17 4 -34q3.5 -17 11.5 -33.5q8 -16.5 23 -31.5q20 -21 50.5 -32q30.5 -11 64.5 -11q34 0 58.5 10q24.5 10 41.5 24q8 7 17 17.5q9 10.5 16.5 24q7.5 13.5 12 31.5q4.5 18 4.5 40v9h-100v-1q0 -7 -1.5 -18.5q-1.5 -11.5 -9.5 -21.5q-8 -11 -18.5 -14q-10.5 -3 -21.5 -3q-18 0 -27.5 6q-9.5 6 -13.5 11q-7 8 -9.5 19.5q-2.5 11.5 -2.5 22.5v192q0 13 2.5 25q2.5 12 11.5 23q9 11 19.5 14q10.5 3 19.5 3q15 0 25 -5.5q10 -5.5 15 -13.5q7 -10 9 -20q2 -10 2 -19v-2zM208 645l53 -67h57l-51 122h-118l-51 -122l57 0z" />
<glyph unicode="&#268;" horiz-adv-x="434" d="M289 501h97v48q0 37 -13 67q-13 30 -32 49q-23 22 -56 33.5q-33 11.5 -65 11.5q-28 0 -59.5 -10q-31.5 -10 -54.5 -31q-34 -29 -42.5 -66q-8.5 -37 -8.5 -71v-363q0 -27 4 -60.5q4 -33.5 31 -65.5q17 -20 46.5 -36.5q29.5 -16.5 79.5 -16.5q52 0 83.5 15q31.5 15 47.5 32q14 14 28 45q14 31 14 83v29h-100v-25q0 -26 -5 -39q-5 -13 -9 -18q-9 -12 -24 -18q-15 -6 -32 -6q-21 0 -33.5 8.5q-12.5 8.5 -17.5 16.5q-10 14 -11.5 29.5q-1.5 15.5 -1.5 32.5v345q0 18 2.5 36q2.5 18 14.5 33q8 9 20 16q12 7 32 7q24 0 36 -10q12 -10 16 -15q7 -10 10 -22.5q3 -12.5 3 -23.5zM217 811l-60 58h-64l57 -105h134l57 105l-64 0z" />
<glyph unicode="&#269;" horiz-adv-x="384" d="M354 346v3q0 29 -10 60q-10 31 -30 52q-19 20 -49 31.5q-30 11.5 -66 11.5q-37 0 -62 -11.5q-25 -11.5 -41 -25.5q-16 -14 -25 -30.5q-9 -16.5 -13.5 -33.5q-4.5 -17 -6 -33.5q-1.5 -16.5 -1.5 -31.5v-171q0 -16 0.5 -33q0.5 -17 4 -34q3.5 -17 11.5 -33.5q8 -16.5 23 -31.5q20 -21 50.5 -32q30.5 -11 64.5 -11q34 0 58.5 10q24.5 10 41.5 24q8 7 17 17.5q9 10.5 16.5 24q7.5 13.5 12 31.5q4.5 18 4.5 40v9h-100v-1q0 -7 -1.5 -18.5q-1.5 -11.5 -9.5 -21.5q-8 -11 -18.5 -14q-10.5 -3 -21.5 -3q-18 0 -27.5 6q-9.5 6 -13.5 11q-7 8 -9.5 19.5q-2.5 11.5 -2.5 22.5v192q0 13 2.5 25q2.5 12 11.5 23q9 11 19.5 14q10.5 3 19.5 3q15 0 25 -5.5q10 -5.5 15 -13.5q7 -10 9 -20q2 -10 2 -19v-2zM212 633l-53 67h-57l51 -122h118l51 122l-57 0z" />
<glyph unicode="&#270;" horiz-adv-x="450" d="M60 700v-700h149q15 0 32.5 2q17.5 2 36 7.5q18.5 5.5 37 16.5q18.5 11 35.5 29q30 33 37.5 70q7.5 37 7.5 73v309q0 11 -1.5 29.5q-1.5 18.5 -6.5 39.5q-5 21 -16 42.5q-11 21.5 -30 39.5q-17 15 -35.5 23.5q-18.5 8.5 -38 12.5q-19.5 4 -38 5q-18.5 1 -34.5 1zM160 602h51q19 0 35 -3q16 -3 30 -20q12 -15 15.5 -32.5q3.5 -17.5 3.5 -32.5v-310q0 -17 -3.5 -41q-3.5 -24 -19.5 -41q-15 -16 -33 -20q-18 -4 -34 -4h-45zM208 811l-60 58h-64l57 -105h134l57 105l-64 0z" />
<glyph unicode="&#271;" horiz-adv-x="410" d="M256 0h100v700h-100v-244q-14 18 -33 29q-14 8 -29 13.5q-15 5.5 -37 5.5q-22 0 -40.5 -6.5q-18.5 -6.5 -33.5 -22.5q-20 -20 -24.5 -43q-4.5 -23 -4.5 -41v-258q0 -24 3 -52q3 -28 20 -51q3 -4 9.5 -10.5q6.5 -6.5 16.5 -12.5q10 -6 24 -10.5q14 -4.5 33 -4.5q15 0 31 4q16 4 30 13q10 7 19 16q9 9 15 19l1 0zM256 156q0 -12 -2.5 -25q-2.5 -13 -13.5 -25q-5 -5 -14.5 -10.5q-9.5 -5.5 -23.5 -5.5q-22 0 -35 15q-10 11 -11.5 21.5q-1.5 10.5 -1.5 23.5v201q0 9 2 19.5q2 10.5 11 20.5q13 15 35 15q14 0 23.5 -5.5q9.5 -5.5 14.5 -10.5q11 -12 13.5 -25q2.5 -13 2.5 -25zM403 703v-176l100 80l0 96z" />
<glyph unicode="&#272;" horiz-adv-x="458" d="M63 700v-311h-53v-70h53v-319h149q15 0 32.5 2q17.5 2 36 7.5q18.5 5.5 37 16.5q18.5 11 35.5 29q30 33 37.5 70q7.5 37 7.5 73v309q0 11 -1.5 29.5q-1.5 18.5 -6.5 39.5q-5 21 -16 42.5q-11 21.5 -30 39.5q-17 15 -35.5 23.5q-18.5 8.5 -38 12.5q-19.5 4 -38 5q-18.5 1 -34.5 1zM163 602h51q19 0 35 -3q16 -3 30 -20q12 -15 15.5 -32.5q3.5 -17.5 3.5 -32.5v-310q0 -17 -3.5 -41q-3.5 -24 -19.5 -41q-15 -16 -33 -20q-18 -4 -34 -4h-45v221h57v70l-57 0z" />
<glyph unicode="&#273;" horiz-adv-x="449" d="M256 0h100v549h48v60h-48v91h-100v-91h-104v-60h104v-93q-14 18 -33 29q-14 8 -29 13.5q-15 5.5 -37 5.5q-22 0 -40.5 -6.5q-18.5 -6.5 -33.5 -22.5q-20 -20 -24.5 -43q-4.5 -23 -4.5 -41v-258q0 -24 3 -52q3 -28 20 -51q3 -4 9.5 -10.5q6.5 -6.5 16.5 -12.5q10 -6 24 -10.5q14 -4.5 33 -4.5q15 0 31 4q16 4 30 13q10 7 19 16q9 9 15 19l1 0zM256 156q0 -12 -2.5 -25q-2.5 -13 -13.5 -25q-5 -5 -14.5 -10.5q-9.5 -5.5 -23.5 -5.5q-22 0 -35 15q-10 11 -11.5 21.5q-1.5 10.5 -1.5 23.5v201q0 9 2 19.5q2 10.5 11 20.5q13 15 35 15q14 0 23.5 -5.5q9.5 -5.5 14.5 -10.5q11 -12 13.5 -25q2.5 -13 2.5 -25z" />
<glyph unicode="&#274;" horiz-adv-x="395" d="M60 0h300v95h-200v214h174v90h-174v206h197v95h-297zM85 824v-60h224l0 60z" />
<glyph unicode="&#275;" horiz-adv-x="397" d="M150 211h202v130q0 15 -1.5 31q-1.5 16 -7 32.5q-5.5 16.5 -15.5 33q-10 16.5 -26 30.5q-19 17 -45.5 26.5q-26.5 9.5 -58.5 9.5q-32 0 -57 -9.5q-25 -9.5 -42 -24.5q-16 -14 -25.5 -29.5q-9.5 -15.5 -15 -31q-5.5 -15.5 -7 -31q-1.5 -15.5 -1.5 -28.5v-190q0 -11 0.5 -26q0.5 -15 4 -31q3.5 -16 11 -32q7.5 -16 20.5 -31q20 -22 50 -35q30 -13 65 -13q26 0 50 7q24 7 43 21q18 13 29 28.5q11 15.5 17 31.5q6 16 8 31.5q2 15.5 2 29.5v4h-100q0 -19 -9 -34q-14 -21 -40 -21q-26 0 -38 14q-9 9 -11 20.5q-2 11.5 -2 22.5zM150 288v61q0 10 2 20.5q2 10.5 10 19.5q14 17 39 17q23 0 37 -14q9 -9 11.5 -19q2.5 -10 2.5 -20v-65zM93 668v-70h224l0 70z" />
<glyph unicode="&#278;" horiz-adv-x="395" d="M60 0h300v95h-200v214h174v90h-174v206h197v95h-297zM142 864v-100h110l0 100z" />
<glyph unicode="&#279;" horiz-adv-x="397" d="M150 211h202v130q0 15 -1.5 31q-1.5 16 -7 32.5q-5.5 16.5 -15.5 33q-10 16.5 -26 30.5q-19 17 -45.5 26.5q-26.5 9.5 -58.5 9.5q-32 0 -57 -9.5q-25 -9.5 -42 -24.5q-16 -14 -25.5 -29.5q-9.5 -15.5 -15 -31q-5.5 -15.5 -7 -31q-1.5 -15.5 -1.5 -28.5v-190q0 -11 0.5 -26q0.5 -15 4 -31q3.5 -16 11 -32q7.5 -16 20.5 -31q20 -22 50 -35q30 -13 65 -13q26 0 50 7q24 7 43 21q18 13 29 28.5q11 15.5 17 31.5q6 16 8 31.5q2 15.5 2 29.5v4h-100q0 -19 -9 -34q-14 -21 -40 -21q-26 0 -38 14q-9 9 -11 20.5q-2 11.5 -2 22.5zM150 288v61q0 10 2 20.5q2 10.5 10 19.5q14 17 39 17q23 0 37 -14q9 -9 11.5 -19q2.5 -10 2.5 -20v-65zM148 686v-98h100l0 98z" />
<glyph unicode="&#280;" horiz-adv-x="395" d="M60 0h300v95h-200v214h174v89h-174v207h197v95h-297zM360 0h-108l-10 -6q-12 -7 -21.5 -14q-9.5 -7 -17.5 -15q-18 -21 -18 -43q0 -10 3.5 -22.5q3.5 -12.5 13 -23q9.5 -10.5 26 -18q16.5 -7.5 41.5 -7.5q11 0 32 5.5q21 5.5 43 30.5l-32 32q-5 -5 -13.5 -9q-8.5 -4 -20.5 -4q-20 0 -26 10.5q-6 10.5 -6 18.5q0 10 5.5 17.5q5.5 7.5 10.5 12.5q5 5 15 12q10 7 18 12l18 11z" />
<glyph unicode="&#281;" horiz-adv-x="397" d="M150 211h202v130q0 15 -1.5 31q-1.5 16 -7 32.5q-5.5 16.5 -15.5 33q-10 16.5 -26 30.5q-19 17 -45.5 26.5q-26.5 9.5 -58.5 9.5q-32 0 -57 -9.5q-25 -9.5 -42 -24.5q-16 -14 -25.5 -29.5q-9.5 -15.5 -15 -31q-5.5 -15.5 -7 -31q-1.5 -15.5 -1.5 -28.5v-190q0 -11 0.5 -26q0.5 -15 4 -31q3.5 -16 11 -32q7.5 -16 20.5 -31q17 -20 45 -33q28 -13 63 -15l-8 -5q-19 -13 -28 -23q-8 -8 -12.5 -18.5q-4.5 -10.5 -4.5 -23.5q0 -14 5 -27.5q5 -13.5 16 -23.5q22 -20 63 -20q13 0 23.5 2.5q10.5 2.5 22.5 9.5q15 8 29 24l-32 32q-5 -5 -13.5 -9q-8.5 -4 -20.5 -4q-17 0 -24.5 9q-7.5 9 -7.5 20q0 13 5.5 21q5.5 8 13.5 15q9 8 16.5 13q7.5 5 13.5 10l15 11q14 6 28 16.5q14 10.5 24 21.5q14 17 23 43q9 26 9 55v4h-102q0 -8 -2.5 -16.5q-2.5 -8.5 -7.5 -15.5q-6 -8 -15.5 -13.5q-9.5 -5.5 -23.5 -5.5q-10 0 -20 3q-10 3 -16 10q-9 9 -11 20.5q-2 11.5 -2 19.5zM150 288v61q0 10 2 20.5q2 10.5 10 19.5q14 17 39 17q23 0 37 -14q9 -9 11.5 -19q2.5 -10 2.5 -20l0 -65z" />
<glyph unicode="&#282;" horiz-adv-x="395" d="M60 0h300v95h-200v214h174v90h-174v206h197v95h-297zM197 811l-60 58h-64l57 -105h134l57 105l-64 0z" />
<glyph unicode="&#283;" horiz-adv-x="397" d="M150 211h202v130q0 15 -1.5 31q-1.5 16 -7 32.5q-5.5 16.5 -15.5 33q-10 16.5 -26 30.5q-19 17 -45.5 26.5q-26.5 9.5 -58.5 9.5q-32 0 -57 -9.5q-25 -9.5 -42 -24.5q-16 -14 -25.5 -29.5q-9.5 -15.5 -15 -31q-5.5 -15.5 -7 -31q-1.5 -15.5 -1.5 -28.5v-190q0 -11 0.5 -26q0.5 -15 4 -31q3.5 -16 11 -32q7.5 -16 20.5 -31q20 -22 50 -35q30 -13 65 -13q26 0 50 7q24 7 43 21q18 13 29 28.5q11 15.5 17 31.5q6 16 8 31.5q2 15.5 2 29.5v4h-100q0 -19 -9 -34q-14 -21 -40 -21q-26 0 -38 14q-9 9 -11 20.5q-2 11.5 -2 22.5zM150 288v61q0 10 2 20.5q2 10.5 10 19.5q14 17 39 17q23 0 37 -14q9 -9 11.5 -19q2.5 -10 2.5 -20v-65zM205 633l-53 67h-57l51 -122h118l51 122l-57 0z" />
<glyph unicode="&#284;" horiz-adv-x="461" d="M405 500v28q0 49 -15.5 83q-15.5 34 -35.5 54q-21 21 -53 33q-32 12 -71 12q-14 0 -32.5 -2.5q-18.5 -2.5 -37.5 -9.5q-19 -7 -37.5 -20q-18.5 -13 -33.5 -34q-23 -32 -28 -64q-5 -32 -5 -64v-354q0 -24 6 -58q6 -34 30 -64q25 -31 54.5 -40.5q29.5 -9.5 56.5 -9.5q13 0 34.5 2.5q21.5 2.5 43.5 14.5q11 6 24 17q13 11 24 30l26 -54h50v382h-185v-90h85v-94q0 -19 -2 -42q-2 -23 -16 -40q-10 -13 -26 -20.5q-16 -7.5 -32 -7.5q-18 0 -32.5 7q-14.5 7 -23.5 18q-12 16 -14.5 36q-2.5 20 -2.5 36v328q0 19 2.5 38q2.5 19 16.5 36q9 11 22.5 18q13.5 7 33.5 7q20 0 33 -6q13 -6 21 -14q14 -14 17 -29q3 -15 3 -28v-35zM230 822l60 -58h64l-57 105h-134l-57 -105l64 0z" />
<glyph unicode="&#285;" horiz-adv-x="406" d="M252 496v-44h-1q-6 10 -15 19q-9 9 -19 16q-14 9 -30 13q-16 4 -31 4q-19 0 -33 -4.5q-14 -4.5 -24 -10.5q-10 -6 -16.5 -12.5q-6.5 -6.5 -9.5 -10.5q-17 -23 -20 -51q-3 -28 -3 -52v-253q0 -18 4.5 -41q4.5 -23 24.5 -43q15 -16 33.5 -22.5q18.5 -6.5 40.5 -6.5q22 0 37 5.5q15 5.5 29 13.5q19 11 33 29l0 -84q0 -15 -2 -29q-2 -14 -9 -24q-5 -8 -15 -13.5q-10 -5.5 -26 -5.5q-8 0 -18.5 2.5q-10.5 2.5 -18.5 11.5q-6 7 -10 16.5q-4 9.5 -3 20.5l-100 0q2 -29 12 -57q10 -28 26 -46q14 -17 41 -31.5q27 -14.5 70 -14.5q44 0 72 14q28 14 43 31q26 27 32 57.5q6 30.5 6 60.5v542zM252 161q0 -12 -2.5 -25q-2.5 -13 -13.5 -25q-5 -5 -14.5 -10.5q-9.5 -5.5 -23.5 -5.5q-21 0 -35 15q-9 11 -11 21.5q-2 10.5 -2 18.5v196q0 12 2 23q2 11 11 22q14 15 35 15q14 0 23.5 -5.5q9.5 -5.5 14.5 -10.5q11 -12 13.5 -25q2.5 -13 2.5 -25zM217 645l53 -67h57l-51 122h-118l-51 -122l57 0z" />
<glyph unicode="&#286;" horiz-adv-x="461" d="M405 500v28q0 49 -15.5 83q-15.5 34 -35.5 54q-21 21 -53 33q-32 12 -71 12q-14 0 -32.5 -2.5q-18.5 -2.5 -37.5 -9.5q-19 -7 -37.5 -20q-18.5 -13 -33.5 -34q-23 -32 -28 -64q-5 -32 -5 -64v-354q0 -24 6 -58q6 -34 30 -64q25 -31 54.5 -40.5q29.5 -9.5 56.5 -9.5q13 0 34.5 2.5q21.5 2.5 43.5 14.5q11 6 24 17q13 11 24 30l26 -54h50v382h-185v-90h85v-94q0 -19 -2 -42q-2 -23 -16 -40q-10 -13 -26 -20.5q-16 -7.5 -32 -7.5q-18 0 -32.5 7q-14.5 7 -23.5 18q-12 16 -14.5 36q-2.5 20 -2.5 36v328q0 19 2.5 38q2.5 19 16.5 36q9 11 22.5 18q13.5 7 33.5 7q20 0 33 -6q13 -6 21 -14q14 -14 17 -29q3 -15 3 -28v-35zM350 869h-54v-3q0 -14 -6.5 -21.5q-6.5 -7.5 -10.5 -10.5q-10 -7 -24 -9.5q-14 -2.5 -25 -2.5q-11 0 -25 2.5q-14 2.5 -24 9.5q-4 3 -10.5 10.5q-6.5 7.5 -6.5 21.5v3h-54v-5q0 -39 19 -63q15 -19 42 -29q27 -10 59 -10q32 0 59 10q27 10 42 29q19 24 19 63z" />
<glyph unicode="&#287;" horiz-adv-x="406" d="M252 496v-44h-1q-6 10 -15 19q-9 9 -19 16q-14 9 -30 13q-16 4 -31 4q-19 0 -33 -4.5q-14 -4.5 -24 -10.5q-10 -6 -16.5 -12.5q-6.5 -6.5 -9.5 -10.5q-17 -23 -20 -51q-3 -28 -3 -52v-253q0 -18 4.5 -41q4.5 -23 24.5 -43q15 -16 33.5 -22.5q18.5 -6.5 40.5 -6.5q22 0 37 5.5q15 5.5 29 13.5q19 11 33 29l0 -84q0 -15 -2 -29q-2 -14 -9 -24q-5 -8 -15 -13.5q-10 -5.5 -26 -5.5q-8 0 -18.5 2.5q-10.5 2.5 -18.5 11.5q-6 7 -10 16.5q-4 9.5 -3 20.5l-100 0q2 -29 12 -57q10 -28 26 -46q14 -17 41 -31.5q27 -14.5 70 -14.5q44 0 72 14q28 14 43 31q26 27 32 57.5q6 30.5 6 60.5v542zM252 161q0 -12 -2.5 -25q-2.5 -13 -13.5 -25q-5 -5 -14.5 -10.5q-9.5 -5.5 -23.5 -5.5q-21 0 -35 15q-9 11 -11 21.5q-2 10.5 -2 18.5v196q0 12 2 23q2 11 11 22q14 15 35 15q14 0 23.5 -5.5q9.5 -5.5 14.5 -10.5q11 -12 13.5 -25q2.5 -13 2.5 -25zM337 700h-54v-3q0 -13 -5.5 -22.5q-5.5 -9.5 -11.5 -14.5q-11 -9 -24.5 -11.5q-13.5 -2.5 -24.5 -2.5q-11 0 -24.5 2.5q-13.5 2.5 -24.5 11.5q-6 5 -11.5 14.5q-5.5 9.5 -5.5 22.5v3h-54v-6q0 -17 4 -37q4 -20 15 -36q10 -15 33 -30q23 -15 68 -15q45 0 68 15q23 15 33 30q11 16 15 36q4 20 4 37z" />
<glyph unicode="&#290;" horiz-adv-x="461" d="M405 500v28q0 49 -15.5 83q-15.5 34 -35.5 54q-21 21 -53 33q-32 12 -71 12q-14 0 -32.5 -2.5q-18.5 -2.5 -37.5 -9.5q-19 -7 -37.5 -20q-18.5 -13 -33.5 -34q-23 -32 -28 -64q-5 -32 -5 -64v-354q0 -24 6 -58q6 -34 30 -64q25 -31 54.5 -40.5q29.5 -9.5 56.5 -9.5q13 0 34.5 2.5q21.5 2.5 43.5 14.5q11 6 24 17q13 11 24 30l26 -54h50v382h-185v-90h85v-94q0 -19 -2 -42q-2 -23 -16 -40q-10 -13 -26 -20.5q-16 -7.5 -32 -7.5q-18 0 -32.5 7q-14.5 7 -23.5 18q-12 16 -14.5 36q-2.5 20 -2.5 36v328q0 19 2.5 38q2.5 19 16.5 36q9 11 22.5 18q13.5 7 33.5 7q20 0 33 -6q13 -6 21 -14q14 -14 17 -29q3 -15 3 -28v-35zM175 -76v-180l100 80l0 100z" />
<glyph unicode="&#291;" horiz-adv-x="406" d="M252 496v-44h-1q-6 10 -15 19q-9 9 -19 16q-14 9 -30 13q-16 4 -31 4q-19 0 -33 -4.5q-14 -4.5 -24 -10.5q-10 -6 -16.5 -12.5q-6.5 -6.5 -9.5 -10.5q-17 -23 -20 -51q-3 -28 -3 -52v-253q0 -18 4.5 -41q4.5 -23 24.5 -43q15 -16 33.5 -22.5q18.5 -6.5 40.5 -6.5q22 0 37 5.5q15 5.5 29 13.5q19 11 33 29l0 -84q0 -15 -2 -29q-2 -14 -9 -24q-5 -8 -15 -13.5q-10 -5.5 -26 -5.5q-8 0 -18.5 2.5q-10.5 2.5 -18.5 11.5q-6 7 -10 16.5q-4 9.5 -3 20.5l-100 0q2 -29 12 -57q10 -28 26 -46q14 -17 41 -31.5q27 -14.5 70 -14.5q44 0 72 14q28 14 43 31q26 27 32 57.5q6 30.5 6 60.5v542zM252 161q0 -12 -2.5 -25q-2.5 -13 -13.5 -25q-5 -5 -14.5 -10.5q-9.5 -5.5 -23.5 -5.5q-21 0 -35 15q-9 11 -11 21.5q-2 10.5 -2 18.5v196q0 12 2 23q2 11 11 22q14 15 35 15q14 0 23.5 -5.5q9.5 -5.5 14.5 -10.5q11 -12 13.5 -25q2.5 -13 2.5 -25zM269 556v215l-105 -110l0 -105z" />
<glyph unicode="&#292;" horiz-adv-x="455" d="M60 700v-700h100v309h135v-309h100v700h-100v-301h-135v301zM227 822l60 -58h64l-57 105h-134l-57 -105l64 0z" />
<glyph unicode="&#293;" horiz-adv-x="410" d="M54 0h100v340q0 12 2.5 25q2.5 13 13.5 25q5 5 14.5 10.5q9.5 5.5 23.5 5.5q21 0 35 -15q9 -10 11 -20.5q2 -10.5 2 -19.5v-351h100v391q0 18 -4.5 41q-4.5 23 -24.5 43q-15 16 -33.5 22.5q-18.5 6.5 -40.5 6.5q-22 0 -37 -5.5q-15 -5.5 -29 -13.5q-19 -11 -33 -29l0 244h-100zM107 802l53 -67h57l-51 122h-118l-51 -122l57 0z" />
<glyph unicode="&#298;" horiz-adv-x="220" d="M60 700v-700h100v700zM-2 824v-60h224l0 60z" />
<glyph unicode="&#299;" horiz-adv-x="208" d="M54 0h100v496h-100zM-8 668v-70h224l0 70z" />
<glyph unicode="&#302;" horiz-adv-x="220" d="M60 700v-700h100v700zM164 1h-53l-20 -13q-6 -4 -15 -10q-9 -6 -17 -14.5q-8 -8.5 -14 -19.5q-6 -11 -6 -26q0 -10 3.5 -22.5q3.5 -12.5 13 -23q9.5 -10.5 26 -18q16.5 -7.5 41.5 -7.5q11 0 32 5.5q21 5.5 43 30.5l-32 32q-5 -5 -13.5 -9q-8.5 -4 -20.5 -4q-17 0 -24.5 9q-7.5 9 -7.5 20q0 13 5.5 21q5.5 8 13.5 15q9 8 16.5 13q7.5 5 13.5 10z" />
<glyph unicode="&#303;" horiz-adv-x="208" d="M54 0h42l-19 -12q-18 -11 -33 -25.5q-15 -14.5 -15 -40.5q0 -10 3.5 -22.5q3.5 -12.5 13 -23q9.5 -10.5 26 -18q16.5 -7.5 41.5 -7.5q11 0 32 5.5q21 5.5 43 30.5l-32 32q-5 -5 -13.5 -9q-8.5 -4 -20.5 -4q-20 0 -26 10.5q-6 10.5 -6 18.5q0 11 6 18q6 7 13 13q14 12 18.5 15q4.5 3 11.5 8l15 11v496h-100zM54 686v-98h100l0 98z" />
<glyph unicode="&#304;" horiz-adv-x="220" d="M60 700v-700h100v700zM55 864v-100h110l0 100z" />
<glyph unicode="&#305;" horiz-adv-x="208" d="M54 0h100v496l-100 0z" />
<glyph unicode="&#307;" horiz-adv-x="418" d="M54 0h100v496h-100zM54 686v-98h100v98zM364 496h-100v-543q0 -9 -1.5 -21q-1.5 -12 -11.5 -23q-5 -5 -14.5 -10q-9.5 -5 -25.5 -5h-18v-98h32q25 0 53.5 5q28.5 5 53.5 32q26 29 29 60.5q3 31.5 3 59.5zM264 686v-98h100l0 98z" />
<glyph unicode="&#308;" horiz-adv-x="361" d="M201 700v-515q0 -17 -3.5 -36q-3.5 -19 -15.5 -35q-11 -15 -26.5 -20.5q-15.5 -5.5 -32.5 -5.5q-11 0 -27 4.5q-16 4.5 -29 22.5l-77 -65q18 -21 37 -33q19 -12 37 -18q18 -6 33 -7.5q15 -1.5 25 -1.5q31 0 64.5 7.5q33.5 7.5 63.5 37.5q18 18 28.5 39q10.5 21 15.5 42q5 21 6 42q1 21 1 40v502zM245 822l60 -58h64l-57 105h-134l-57 -105l64 0z" />
<glyph unicode="&#309;" horiz-adv-x="210" d="M156 496h-100v-543q0 -9 -1.5 -21q-1.5 -12 -11.5 -23q-5 -5 -14.5 -10q-9.5 -5 -25.5 -5h-18v-98h32q25 0 53.5 5q28.5 5 53.5 32q26 29 29 60.5q3 31.5 3 59.5zM105 645l53 -67h57l-51 122h-118l-51 -122l57 0z" />
<glyph unicode="&#310;" horiz-adv-x="475" d="M60 700v-700h100v205l62 108l119 -313h109l-168 413l142 287h-105l-159 -337v337zM182 -76v-180l100 80l0 100z" />
<glyph unicode="&#311;" horiz-adv-x="403" d="M54 0h100v139l48 75l90 -214h108l-143 294l119 202h-100l-120 -216h-2v420h-100zM166 -73v-176l100 80l0 96z" />
<glyph unicode="&#313;" horiz-adv-x="407" d="M60 700v-700h312v95h-212v605zM132 764l106 105h-121l-50 -105z" />
<glyph unicode="&#314;" horiz-adv-x="230" d="M54 700v-564q0 -22 3.5 -46.5q3.5 -24.5 21.5 -47.5q12 -15 26 -23q14 -8 28 -12.5q14 -4.5 26.5 -5.5q12.5 -1 21.5 -1h29v93h-10q-6 0 -15 1.5q-9 1.5 -17 8.5q-9 8 -11.5 18.5q-2.5 10.5 -2.5 19.5v559zM113 726l94 122h-107l-44 -122z" />
<glyph unicode="&#315;" horiz-adv-x="407" d="M60 700v-700h312v95h-212v605zM148 -76v-180l100 80l0 100z" />
<glyph unicode="&#316;" horiz-adv-x="230" d="M54 700v-564q0 -22 3.5 -46.5q3.5 -24.5 21.5 -47.5q12 -15 26 -23q14 -8 28 -12.5q14 -4.5 26.5 -5.5q12.5 -1 21.5 -1h29v93h-10q-6 0 -15 1.5q-9 1.5 -17 8.5q-9 8 -11.5 18.5q-2.5 10.5 -2.5 19.5v559zM84 -73v-176l100 80l0 96z" />
<glyph unicode="&#317;" horiz-adv-x="407" d="M60 700v-700h312v95h-212v605zM231 700v-190l100 90l0 100z" />
<glyph unicode="&#318;" horiz-adv-x="230" d="M54 700v-564q0 -22 3.5 -46.5q3.5 -24.5 21.5 -47.5q12 -15 26 -23q14 -8 28 -12.5q14 -4.5 26.5 -5.5q12.5 -1 21.5 -1h29v93h-10q-6 0 -15 1.5q-9 1.5 -17 8.5q-9 8 -11.5 18.5q-2.5 10.5 -2.5 19.5v559zM208 700v-176l100 80l0 96z" />
<glyph unicode="&#321;" horiz-adv-x="407" d="M60 700v-360l-70 -60l39 -46l31 27v-261h312v92h-212v254l86 74l-39 46l-47 -40l0 274z" />
<glyph unicode="&#322;" horiz-adv-x="280" d="M60 700v-340l-70 -60l39 -46l31 27v-145q0 -22 3.5 -46.5q3.5 -24.5 21.5 -47.5q12 -15 26 -23q14 -8 28 -12.5q14 -4.5 26.5 -5.5q12.5 -1 21.5 -1h29v93h-10q-6 0 -15 1.5q-9 1.5 -17 8.5q-9 8 -11.5 18.5q-2.5 10.5 -2.5 19.5v225l75 63l-39 46l-36 -30l0 255z" />
<glyph unicode="&#323;" horiz-adv-x="487" d="M60 700v-700h100v440l167 -440h100v700h-100v-440l-167 440zM248 764l106 105h-121l-50 -105z" />
<glyph unicode="&#324;" horiz-adv-x="410" d="M54 0h100v340q0 12 2.5 25q2.5 13 13.5 25q5 5 14.5 10.5q9.5 5.5 23.5 5.5q21 0 35 -15q9 -10 11 -20.5q2 -10.5 2 -19.5v-351h100v391q0 18 -4.5 41q-4.5 23 -24.5 43q-12 13 -30 21q-18 8 -44 8q-8 0 -19 -1.5q-11 -1.5 -24.5 -7q-13.5 -5.5 -28 -16q-14.5 -10.5 -27.5 -28.5l0 45h-100zM211 578l94 122h-107l-44 -122z" />
<glyph unicode="&#325;" horiz-adv-x="487" d="M60 700v-700h100v440l167 -440h100v700h-100v-440l-167 440zM188 -76v-180l100 80l0 100z" />
<glyph unicode="&#326;" horiz-adv-x="410" d="M54 0h100v340q0 12 2.5 25q2.5 13 13.5 25q5 5 14.5 10.5q9.5 5.5 23.5 5.5q21 0 35 -15q9 -10 11 -20.5q2 -10.5 2 -19.5v-351h100v391q0 18 -4.5 41q-4.5 23 -24.5 43q-12 13 -30 21q-18 8 -44 8q-8 0 -19 -1.5q-11 -1.5 -24.5 -7q-13.5 -5.5 -28 -16q-14.5 -10.5 -27.5 -28.5l0 45h-100zM155 -73v-176l100 80l0 96z" />
<glyph unicode="&#327;" horiz-adv-x="487" d="M60 700v-700h100v440l167 -440h100v700h-100v-440l-167 440zM243 811l-60 58h-64l57 -105h134l57 105l-64 0z" />
<glyph unicode="&#328;" horiz-adv-x="410" d="M54 0h100v340q0 12 2.5 25q2.5 13 13.5 25q5 5 14.5 10.5q9.5 5.5 23.5 5.5q21 0 35 -15q9 -10 11 -20.5q2 -10.5 2 -19.5v-351h100v391q0 18 -4.5 41q-4.5 23 -24.5 43q-12 13 -30 21q-18 8 -44 8q-8 0 -19 -1.5q-11 -1.5 -24.5 -7q-13.5 -5.5 -28 -16q-14.5 -10.5 -27.5 -28.5l0 45h-100zM205 633l-53 67h-57l51 -122h118l51 122l-57 0z" />
<glyph unicode="&#332;" horiz-adv-x="462" d="M56 184q0 -40 8 -77.5q8 -37.5 44 -71.5q23 -21 53.5 -33q30.5 -12 69.5 -12q39 0 69.5 12q30.5 12 53.5 33q36 34 44 71.5q8 37.5 8 77.5v332q0 40 -8 77.5q-8 37.5 -44 71.5q-23 21 -53.5 33q-30.5 12 -69.5 12q-39 0 -69.5 -12q-30.5 -12 -53.5 -33q-36 -34 -44 -71.5q-8 -37.5 -8 -77.5zM306 169q0 -16 -3.5 -31.5q-3.5 -15.5 -17.5 -29.5q-8 -8 -21.5 -14q-13.5 -6 -32.5 -6q-19 0 -32.5 6q-13.5 6 -21.5 14q-14 14 -17.5 29.5q-3.5 15.5 -3.5 31.5v362q0 16 3.5 31.5q3.5 15.5 17.5 29.5q8 8 21.5 14q13.5 6 32.5 6q19 0 32.5 -6q13.5 -6 21.5 -14q14 -14 17.5 -29.5q3.5 -15.5 3.5 -31.5zM119 824v-60h224l0 60z" />
<glyph unicode="&#333;" horiz-adv-x="402" d="M50 160q0 -15 1 -32q1 -17 6 -34.5q5 -17.5 15 -34.5q10 -17 27 -32q20 -17 47 -26q27 -9 55 -9q28 0 55 9q27 9 47 26q17 15 27 32q10 17 15 34.5q5 17.5 6 34.5q1 17 1 32v176q0 15 -1 32q-1 17 -6 34.5q-5 17.5 -15 34.5q-10 17 -27 32q-20 17 -47 26q-27 9 -55 9q-28 0 -55 -9q-27 -9 -47 -26q-17 -15 -27 -32q-10 -17 -15 -34.5q-5 -17.5 -6 -34.5q-1 -17 -1 -32zM252 154q0 -33 -15 -50q-6 -6 -15.5 -10q-9.5 -4 -20.5 -4q-22 0 -36 14q-15 17 -15 50v188q0 33 15 50q14 14 36 14q22 0 36 -14q15 -17 15 -50zM89 668v-70h224l0 70z" />
</font>
</defs>
</svg>
